# Made in Blockbench 5.1.6
mtllib cowling.mtl

o casing
v -0.595431875 2.9375 0.5
v -0.5954318749999999 2.9375 1.625
v -0.6213206250000001 3 0.5
v -0.4659899999999999 2.625 2.125
v -0.4401018749999999 2.5625 1.625
v -0.44010187499999986 2.5625 2.125
v -0.46401937499999996 2.6202425 1.625
v -1.4375 2.095431875 1.625
v -1.4375 2.095431875 0.5000000000000001
v -1.4375 0.9045681250000001 1.625
v -1.4375 0.9045681250000001 0.5000000000000001
v -0.5954318749999999 0.0625 1.625
v -0.595431875 0.0625 0.5
v -1.5 0.8786793750000002 0.5000000000000001
v -1.5 2.121320625 0.5000000000000001
v -0.6213206250000001 0 0.5
v -0.4659899999999999 0.3750000000000001 2.125
v -1.125 1.9659900000000001 2.125
v -1.125 1.03401 2.125
v -1.0625 1.0598981250000001 2.125
v -0.44010187499999986 0.4375000000000001 2.125
v -0.4401018749999999 0.4375000000000001 1.625
v -1.0625 1.0598981250000001 1.625
v -1.0625 1.940101875 2.125
v -1.0625 1.940101875 1.625
v -1.1202424999999998 1.035980625 1.625
v -1.1202424999999998 1.9640193750000001 1.625
v -0.46401937499999996 0.3797575000000001 1.625
v -0.6213206250000003 3 -1.1875
v -0.6213206250000003 0 -1.1875
v -1.5000000000000004 0.8786793750000002 -1.1875
v -1.5000000000000004 2.121320625 -1.1875
v -1.1102230246251565e-16 0 0.4999999999999999
v -3.3306690738754696e-16 0 -1.1875
v -1.1102230246251565e-16 0.0625 0.4999999999999999
v 1.1102230246251565e-16 0.0625 1.625
v 1.1102230246251565e-16 0.3797575000000001 1.625
v 1.1102230246251565e-16 0.4375000000000001 1.625
v 1.1102230246251565e-16 0.4375000000000001 2.125
v 1.1102230246251565e-16 0.3750000000000001 2.125
vt 0.01992109375 0.4765625
vt 0.07816984375 0.4765625
vt 0.07816984375 0.484375
vt 0.023157109375 0.484375
vt 0.312040390625 0.734374921875
vt 0.312040390625 0.9453125
vt 0.15670984375 0.9453125
vt 0.15670984375 0.734374921875
vt 0.00046015625 0.734374921875
vt 0.00046015625 0.9453125
vt 0.155790703125 0.9453125
vt 0.155790703125 0.734374921875
vt 0.312040390625 0.9453125
vt 0.234375078125 0.9453125
vt 0.234375078125 0.734374921875
vt 0.312040390625 0.734374921875
vt 0.159525625 0.734375
vt 0.159525625 0.59375
vt 0.308383515625 0.59375
vt 0.308383515625 0.734375
vt 0.159525625 0.734375
vt 0.159525625 0.59375
vt 0.308383515625 0.59375
vt 0.308383515625 0.734375
vt 0.003275625 0.734375
vt 0.003275625 0.59375
vt 0.152133515625 0.59375
vt 0.152133515625 0.734375
vt 0.308383515625 0.734375
vt 0.233954609375 0.734375
vt 0.233954609375 0.59375
vt 0.308383515625 0.59375
vt 0.13654796875 0.554092734375
vt 0.020543046875 0.554092734375
vt 0.023532734375 0.546874921875
vt 0.13355828125 0.546874921875
vt 0.13654796875 0.554092734375
vt 0.020543046875 0.554092734375
vt 0.023532734375 0.546874921875
vt 0.13355828125 0.546874921875
vt 0.13654796875 0.554092734375
vt 0.020543046875 0.554092734375
vt 0.023532734375 0.546874921875
vt 0.13355828125 0.546874921875
vt 0.0231571875 0.484375
vt 0.01992109375 0.4765625
vt 0.136418671875 0.4765625
vt 0.13318265625 0.484375
vt 0.023157109375 0.484375
vt 0.01992109375 0.4765625
vt 0.13641859375 0.4765625
vt 0.133182578125 0.484375
vt 0.0231571875 0.484375
vt 0.01992109375 0.4765625
vt 0.136418671875 0.4765625
vt 0.13318265625 0.484375
vt 0.1557903125 0.7421875
vt 0.078125234375 0.7421875
vt 0.078125234375 0.734375
vt 0.15255421875 0.734375
vt 0.003696171875 0.734375
vt 0.15255421875 0.734375
vt 0.15579015625 0.7421875
vt 0.00046015625 0.7421875
vt 0.3120403125 0.7421875
vt 0.15671015625 0.7421875
vt 0.15994625 0.734375
vt 0.30880421875 0.734375
vt 0.31204015625 0.7421875
vt 0.15671015625 0.7421875
vt 0.159946171875 0.734375
vt 0.30880421875 0.734375
vt 0.152974609375 0.59375
vt 0.13654796875 0.554092734375
vt 0.020543046875 0.554092734375
vt 0.004116484375 0.59375
vt 0.152974609375 0.59375
vt 0.13654796875 0.554092734375
vt 0.020543046875 0.554092734375
vt 0.004116484375 0.59375
vt 0.004116484375 0.59375
vt 0.078545546875 0.59375
vt 0.078545546875 0.554092734375
vt 0.020543046875 0.554092734375
vt 0.152974609375 0.59375
vt 0.13654796875 0.554092734375
vt 0.020543046875 0.554092734375
vt 0.004116484375 0.59375
vt 0.312040390625 0.734374921875
vt 0.312040390625 0.9453125
vt 0.15670984375 0.9453125
vt 0.15670984375 0.734374921875
vt 0.023532734375 0.546874921875
vt 0.078545546875 0.546874921875
vt 0.078545546875 0.554092734375
vt 0.020543046875 0.554092734375
vn 1.2246467991473532e-16 0 1
vn -1 0 1.2246467991473532e-16
vn -0.7071067811865476 -0.7071067811865475 8.659560562354934e-17
vn 0 -1 0
vn -0.7071067811865476 0.7071067811865476 8.659560562354934e-17
vn -1 0 1.2246467991473532e-16
vn -0.7071067811865476 -0.7071067811865475 8.659560562354934e-17
vn 0 -1 0
vn -1.2246467991473532e-16 0 -1
vn -1.2246467991473532e-16 0 -1
vn -1.2246467991473532e-16 0 -1
vn 1.2246467991473532e-16 0 1
vn 1.2246467991473532e-16 0 1
vn 1.2246467991473532e-16 0 1
vn 1.2246467991473532e-16 0 1
vn 1.2246467991473532e-16 0 1
vn 1.2246467991473532e-16 0 1
vn 1.2246467991473532e-16 0 1
vn 1.2246467991473532e-16 0 1
vn 1.2246467991473532e-16 0 1
vn 1.2246467991473532e-16 0 1
vn 1.2246467991473532e-16 0 1
vn -0.7071067811865475 0.7071067811865476 8.659560562354932e-17
vn -1.2246467991473532e-16 0 -1
usemtl m_fb4282bc-10f8-24fc-5e12-044afee62972
f 17/1/1 40/2/1 39/3/1 21/4/1
f 15/5/2 32/6/2 31/7/2 14/8/2
f 14/9/3 31/10/3 30/11/3 16/12/3
f 30/13/4 34/14/4 33/15/4 16/16/4
f 9/17/5 8/18/5 2/19/5 1/20/5
f 11/21/6 10/22/6 8/23/6 9/24/6
f 13/25/7 12/26/7 10/27/7 11/28/7
f 13/29/8 35/30/8 36/31/8 12/32/8
f 28/33/9 26/34/9 23/35/9 22/36/9
f 26/37/10 27/38/10 25/39/10 23/40/10
f 27/41/11 7/42/11 5/43/11 25/44/11
f 6/45/12 4/46/12 18/47/12 24/48/12
f 24/49/13 18/50/13 19/51/13 20/52/13
f 20/53/14 19/54/14 17/55/14 21/56/14
f 16/57/15 33/58/15 35/59/15 13/60/15
f 13/61/16 11/62/16 14/63/16 16/64/16
f 15/65/17 14/66/17 11/67/17 9/68/17
f 3/69/18 15/70/18 9/71/18 1/72/18
f 10/73/19 26/74/19 27/75/19 8/76/19
f 8/77/20 27/78/20 7/79/20 2/80/20
f 12/81/21 36/82/21 37/83/21 28/84/21
f 12/85/22 28/86/22 26/87/22 10/88/22
f 3/89/23 29/90/23 32/91/23 15/92/23
f 22/93/24 38/94/24 37/95/24 28/96/24
o casing_interior
v 0 0.375 -1.1875
v 4.440892098500626e-16 0.375 1.625
v 4.440892098500626e-16 0.375 2.125
v -0.4401018749999994 2.5625 2.125
v -0.4401018749999994 2.5625 1.625
v -0.4659899999999997 2.625 2.125
v -0.4659899999999997 2.625 1.625
v -0.4659899999999997 0.375 2.125
v -0.4401018749999994 0.4375 2.125
v -0.4401018749999994 0.4375 1.625
v -1.0624999999999996 1.0598981250000001 2.125
v -1.0624999999999996 1.0598981250000001 1.625
v -1.0624999999999996 1.9401018749999999 2.125
v -1.0624999999999996 1.9401018749999999 1.625
v -1.1249999999999996 1.9659900000000001 2.125
v -1.1249999999999996 1.0340099999999999 2.125
v -0.4659899999999997 0.375 1.625
v -1.1249999999999996 1.0340099999999999 1.625
v -1.1249999999999996 1.9659900000000001 1.625
v -0.4659900000000001 0.375 -1.1875
v -1.125 1.0340099999999999 -1.1875
v -1.125 1.9659900000000001 -1.1875
v -0.4659900000000001 2.625 -1.1875
v 4.440892098500626e-16 0.4375 2.125
v 4.440892098500626e-16 0.4375 1.625
vt 0.023762890625 0.484374921875
vt 0.13378875 0.484374921875
vt 0.13378875 0.546874921875
vt 0.023762890625 0.546874921875
vt 0.023762890625 0.484374921875
vt 0.13378875 0.484374921875
vt 0.13378875 0.546874921875
vt 0.023762890625 0.546874921875
vt 0.023762890625 0.484374921875
vt 0.13378875 0.484374921875
vt 0.13378875 0.546874921875
vt 0.023762890625 0.546874921875
vt 0.324563671875 0.52343734375
vt 0.441061328125 0.52343734375
vt 0.441061328125 0.46093734374999995
vt 0.324563671875 0.46093734374999995
vt 0.324563671875 0.52343734375
vt 0.441061328125 0.52343734375
vt 0.441061328125 0.46093734374999995
vt 0.324563671875 0.46093734374999995
vt 0.324563671875 0.52343734375
vt 0.441061328125 0.52343734375
vt 0.441061328125 0.46093734374999995
vt 0.324563671875 0.46093734374999995
vt 0.441061328125 0.52343734375
vt 0.441061328125 0.874999921875
vt 0.324563671875 0.874999921875
vt 0.324563671875 0.52343734375
vt 0.441061328125 0.52343734375
vt 0.441061328125 0.874999921875
vt 0.324563671875 0.874999921875
vt 0.324563671875 0.52343734375
vt 0.441061328125 0.52343734375
vt 0.441061328125 0.874999921875
vt 0.324563671875 0.874999921875
vt 0.324563671875 0.52343734375
vt 0.324563671875 0.52343734375
vt 0.3828125 0.52343734375
vt 0.3828125 0.874999921875
vt 0.324563671875 0.874999921875
vt 0.324563671875 0.52343734375
vt 0.3828125 0.52343734375
vt 0.3828125 0.46093734374999995
vt 0.324563671875 0.46093734374999995
vt 0.023762890625 0.484374921875
vt 0.078775859375 0.484374921875
vt 0.078775859375 0.546874921875
vt 0.023762890625 0.546874921875
vn 0.7071067811865475 -0.7071067811865476 -8.659560562354932e-17
vn 1 0 -1.2246467991473532e-16
vn 0.7071067811865475 0.7071067811865476 -8.659560562354932e-17
vn -0.7071067811865476 -0.7071067811865475 8.659560562354934e-17
vn -1 0 1.2246467991473532e-16
vn -0.7071067811865476 0.7071067811865475 8.659560562354934e-17
vn 0.7071067811865476 0.7071067811865476 -8.659560562354934e-17
vn 1 0 -1.2246467991473532e-16
vn 0.7071067811865476 -0.7071067811865476 -8.659560562354934e-17
vn 0 1 0
vn 0 -1 0
vn 0 1 0
usemtl m_fb4282bc-10f8-24fc-5e12-044afee62972
f 44/97/25 53/98/25 54/99/25 45/100/25
f 53/101/26 51/102/26 52/103/26 54/104/26
f 51/105/27 49/106/27 50/107/27 52/108/27
f 58/109/28 57/110/28 48/111/28 56/112/28
f 59/113/29 58/114/29 56/115/29 55/116/29
f 47/117/30 59/118/30 55/119/30 46/120/30
f 57/121/31 60/122/31 61/123/31 58/124/31
f 58/125/32 61/126/32 62/127/32 59/128/32
f 59/129/33 62/130/33 63/131/33 47/132/33
f 57/133/34 42/134/34 41/135/34 60/136/34
f 57/137/35 42/138/35 43/139/35 48/140/35
f 49/141/36 64/142/36 65/143/36 50/144/36
o cowlingbordum_left
v -0.46599000000000024 0.375 -1.1875
v -0.6213206250000002 0 -1.1875
v -1.1250000000000002 1.0340099999999999 -1.1875
v -1.5000000000000002 0.878679375 -1.1875
v -1.1250000000000002 1.9659900000000001 -1.1875
v -1.5000000000000002 2.121320625 -1.1875
v -0.46599000000000024 2.625 -1.1875
v -0.6213206250000002 3 -1.1875
v -2.4485198724989713e-16 0.375 -1.1875
v -2.4485198724989713e-16 0 -1.1875
vt 0.157143359375 0.4609375
vt 0.2348084375 0.4609375
vt 0.2348084375 0.5078125
vt 0.1765596875 0.5078125
vt 0.312473359375 0.4609375
vt 0.2930571875 0.507812578125
vt 0.176559609375 0.507812578125
vt 0.157143359375 0.4609375
vt 0.312473515625 0.4609375
vt 0.2930571875 0.5078125
vt 0.1765596875 0.5078125
vt 0.157143359375 0.4609375
vt 0.312473359375 0.4609375
vt 0.2930571875 0.507812578125
vt 0.176559609375 0.507812578125
vt 0.157143359375 0.4609375
vn 1.2246467991473532e-16 0 1
vn 1.2246467991473532e-16 0 1
vn 1.2246467991473532e-16 0 1
vn 1.2246467991473532e-16 0 1
usemtl m_fb4282bc-10f8-24fc-5e12-044afee62972
f 67/145/37 75/146/37 74/147/37 66/148/37
f 67/149/38 66/150/38 68/151/38 69/152/38
f 69/153/39 68/154/39 70/155/39 71/156/39
f 71/157/40 70/158/40 72/159/40 73/160/40
o zincs
v -3.8192839893781227e-17 0 0.5
v -2.4485198724989713e-16 0 -1.1875
v -3.8192839893781227e-17 0.0625 0.5
v 9.957992501029599e-17 0.0625 1.625
v 9.957992501029599e-17 0.375 1.625
v -3.8192839893781227e-17 0.375 0.5
v -2.4485198724989713e-16 0.375 -1.1875
vt 0.2109375 0.3046875
vt 0.2109375 0.3515625
vt 0 0.3515625
vt 0 0.3046875
vt 0.3515625 0.3125
vt 0.3515625 0.3515625
vt 0.2109375 0.3515625
vt 0.2109375 0.3125
vn -1 0 1.2246467991473532e-16
vn -1 0 1.2246467991473532e-16
usemtl m_fb4282bc-10f8-24fc-5e12-044afee62972
f 76/161/41 81/162/41 82/163/41 77/164/41
f 79/165/42 80/166/42 81/167/42 78/168/42
o casing_interior
v 0.4401018750000002 2.5625 2.125
v 0.44010187500000014 2.5625 1.625
v 0.46599000000000024 2.625 2.125
v 0.4659900000000002 2.625 1.625
v 0.46599000000000024 0.375 2.125
v 1.1250000000000002 1.0340099999999999 2.125
v 0.4401018750000002 0.4375 2.125
v 1.0625000000000002 1.0598981250000001 2.125
v 1.0625 1.0598981250000001 1.6249999999999998
v 0.44010187500000014 0.4375 1.625
v 1.0625000000000002 1.9401018749999999 2.125
v 1.0625 1.9401018749999999 1.6249999999999998
v 1.1250000000000002 1.9659900000000001 2.125
v 1.125 1.9659900000000001 1.6249999999999998
v 1.125 1.0340099999999999 1.6249999999999998
v 0.4659900000000002 0.375 1.625
v 0.46598999999999985 2.625 -1.1875
v 1.1249999999999998 1.9659900000000001 -1.1875
v 1.1249999999999998 1.0340099999999999 -1.1875
v 0.46598999999999985 0.375 -1.1875
v -1.893408360186393e-16 0.375 -1.1875
v 1.5509107624155381e-16 0.375 1.625
v 2.1632341619892146e-16 0.375 2.125
v 2.1632341619892146e-16 0.4375 2.125
v 1.5509107624155381e-16 0.4375 1.625
vt 0.023762890625 0.484374921875
vt 0.13378875 0.484374921875
vt 0.13378875 0.546874921875
vt 0.023762890625 0.546874921875
vt 0.023762890625 0.484374921875
vt 0.13378875 0.484374921875
vt 0.13378875 0.546874921875
vt 0.023762890625 0.546874921875
vt 0.13378875 0.546874921875
vt 0.078775859375 0.546874921875
vt 0.078775859375 0.484374921875
vt 0.13378875 0.484374921875
vt 0.023762890625 0.484374921875
vt 0.13378875 0.484374921875
vt 0.13378875 0.546874921875
vt 0.023762890625 0.546874921875
vt 0.324563671875 0.52343734375
vt 0.441061328125 0.52343734375
vt 0.441061328125 0.46093734374999995
vt 0.324563671875 0.46093734374999995
vt 0.324563671875 0.52343734375
vt 0.441061328125 0.52343734375
vt 0.441061328125 0.46093734374999995
vt 0.324563671875 0.46093734374999995
vt 0.441061328125 0.46093734374999995
vt 0.3828125 0.46093734374999995
vt 0.3828125 0.52343734375
vt 0.441061328125 0.52343734375
vt 0.324563671875 0.52343734375
vt 0.441061328125 0.52343734375
vt 0.441061328125 0.46093734374999995
vt 0.324563671875 0.46093734374999995
vt 0.441061328125 0.52343734375
vt 0.441061328125 0.874999921875
vt 0.324563671875 0.874999921875
vt 0.324563671875 0.52343734375
vt 0.441061328125 0.52343734375
vt 0.441061328125 0.874999921875
vt 0.324563671875 0.874999921875
vt 0.324563671875 0.52343734375
vt 0.441061328125 0.52343734375
vt 0.441061328125 0.874999921875
vt 0.324563671875 0.874999921875
vt 0.324563671875 0.52343734375
vt 0.441061328125 0.874999921875
vt 0.3828125 0.874999921875
vt 0.3828125 0.52343734375
vt 0.441061328125 0.52343734375
vn -1 0 1.2246467991473532e-16
vn -0.7071067811865476 -0.7071067811865476 8.659560562354934e-17
vn 0 1 0
vn -0.7071067811865476 0.7071067811865476 8.659560562354934e-17
vn 1 0 -1.2246467991473532e-16
vn 0.7071067811865476 -0.7071067811865476 -8.659560562354934e-17
vn 0 -1 0
vn 0.7071067811865476 0.7071067811865476 -8.659560562354934e-17
vn -0.7071067811865476 -0.7071067811865476 8.659560562354934e-17
vn -1 0 1.2246467991473532e-16
vn -0.7071067811865476 0.7071067811865476 8.659560562354934e-17
vn 0 1 0
usemtl m_fb4282bc-10f8-24fc-5e12-044afee62972
f 90/169/43 93/170/43 94/171/43 91/172/43
f 93/173/44 83/174/44 84/175/44 94/176/44
f 92/177/45 107/178/45 106/179/45 89/180/45
f 89/181/46 90/182/46 91/183/46 92/184/46
f 97/185/47 96/186/47 95/187/47 88/188/47
f 98/189/48 97/190/48 88/191/48 87/192/48
f 87/193/49 105/194/49 104/195/49 98/196/49
f 96/197/50 86/198/50 85/199/50 95/200/50
f 86/201/51 99/202/51 100/203/51 96/204/51
f 96/205/52 100/206/52 101/207/52 97/208/52
f 97/209/53 101/210/53 102/211/53 98/212/53
f 102/213/54 103/214/54 104/215/54 98/216/54
o cowlingbordum_right
v 0.46598999999999985 0.375 -1.1875
v -1.893408360186393e-16 0.375 -1.1875
v -1.893408360186393e-16 0 -1.1875
v 0.6213206249999998 0 -1.1875
v 1.1249999999999998 1.0340099999999999 -1.1875
v 1.4999999999999998 0.878679375 -1.1875
v 1.1249999999999998 1.9659900000000001 -1.1875
v 1.4999999999999998 2.121320625 -1.1875
v 0.46598999999999985 2.625 -1.1875
v 0.6213206249999998 3 -1.1875
vt 0.312473359375 0.4609375
vt 0.2930571875 0.507812578125
vt 0.176559609375 0.507812578125
vt 0.157143359375 0.4609375
vt 0.312473515625 0.4609375
vt 0.2930571875 0.5078125
vt 0.1765596875 0.5078125
vt 0.157143359375 0.4609375
vt 0.312473359375 0.4609375
vt 0.2930571875 0.507812578125
vt 0.176559609375 0.507812578125
vt 0.157143359375 0.4609375
vt 0.2930571875 0.5078125
vt 0.2348084375 0.5078125
vt 0.2348084375 0.4609375
vt 0.312473515625 0.4609375
vn 1.2246467991473532e-16 0 1
vn 1.2246467991473532e-16 0 1
vn 1.2246467991473532e-16 0 1
vn 1.2246467991473532e-16 0 1
usemtl m_fb4282bc-10f8-24fc-5e12-044afee62972
f 117/217/55 116/218/55 114/219/55 115/220/55
f 115/221/56 114/222/56 112/223/56 113/224/56
f 113/225/57 112/226/57 108/227/57 111/228/57
f 108/229/58 109/230/58 110/231/58 111/232/58
o casing
v 0.5954318750000003 2.9375 1.625
v 0.595431875 2.9375 0.5
v 0.6213206250000001 3 0.5
v 0.46599000000000024 2.625 2.125
v 0.4401018750000002 2.5625 2.125
v 0.44010187500000014 2.5625 1.625
v 0.4640193750000002 2.6202425 1.625
v 1.4375 0.904568125 1.6249999999999998
v 1.4375 2.095431875 1.6249999999999998
v 1.4375 2.095431875 0.5
v 1.4375 0.904568125 0.5
v 0.5954318750000003 0.0625 1.625
v 0.595431875 0.0625 0.5
v 0.6213206250000001 0 0.5
v 1.5 0.878679375 0.5
v 1.5 2.121320625 0.5
v 0.46599000000000024 0.375 2.125
v 1.1250000000000002 1.0340099999999999 2.125
v 1.1250000000000002 1.9659900000000001 2.125
v 0.4401018750000002 0.4375 2.125
v 1.0625000000000002 1.0598981250000001 2.125
v 1.0625 1.0598981250000001 1.6249999999999998
v 0.44010187500000014 0.4375 1.625
v 1.0625000000000002 1.9401018749999999 2.125
v 1.0625 1.9401018749999999 1.6249999999999998
v 1.1202425 1.964019375 1.6249999999999998
v 1.1202425 1.035980625 1.6249999999999998
v 0.4640193750000002 0.37975749999999997 1.625
v 1.4999999999999998 2.121320625 -1.1875
v 1.4999999999999998 0.878679375 -1.1875
v 0.6213206249999998 0 -1.1875
v 1.73183113374766e-17 0 0.5
v -1.893408360186393e-16 0 -1.1875
v 1.73183113374766e-17 0.0625 0.5
v 1.5509107624155381e-16 0.0625 1.625
v 1.5509107624155381e-16 0.37975749999999997 1.625
v 1.5509107624155381e-16 0.4375 1.625
v 2.1632341619892146e-16 0.4375 2.125
v 2.1632341619892146e-16 0.375 2.125
v 0.6213206249999998 3 -1.1875
v 1.4375 2.095431875 0.5
v 1.4375 0.904568125 0.5
v 0.595431875 0.0625 0.5
v 1.73183113374766e-17 0.0625 0.5
v 0.595431875 2.9375 0.5
vt 0.312040390625 0.734374921875
vt 0.312040390625 0.9453125
vt 0.15670984375 0.9453125
vt 0.15670984375 0.734374921875
vt 0.155790703125 0.734374921875
vt 0.155790703125 0.9453125
vt 0.00046015625 0.9453125
vt 0.00046015625 0.734374921875
vt 0.308383515625 0.59375
vt 0.308383515625 0.734375
vt 0.159525625 0.734375
vt 0.159525625 0.59375
vt 0.152133515625 0.59375
vt 0.152133515625 0.734375
vt 0.003275625 0.734375
vt 0.003275625 0.59375
vt 0.13654796875 0.554092734375
vt 0.020543046875 0.554092734375
vt 0.023532734375 0.546874921875
vt 0.13355828125 0.546874921875
vt 0.13654796875 0.554092734375
vt 0.020543046875 0.554092734375
vt 0.023532734375 0.546874921875
vt 0.13355828125 0.546874921875
vt 0.13654796875 0.554092734375
vt 0.020543046875 0.554092734375
vt 0.023532734375 0.546874921875
vt 0.13355828125 0.546874921875
vt 0.13654796875 0.554092734375
vt 0.078545546875 0.554092734375
vt 0.078545546875 0.546874921875
vt 0.13355828125 0.546874921875
vt 0.0231571875 0.484375
vt 0.01992109375 0.4765625
vt 0.136418671875 0.4765625
vt 0.13318265625 0.484375
vt 0.023157109375 0.484375
vt 0.01992109375 0.4765625
vt 0.13641859375 0.4765625
vt 0.133182578125 0.484375
vt 0.0231571875 0.484375
vt 0.01992109375 0.4765625
vt 0.136418671875 0.4765625
vt 0.13318265625 0.484375
vt 0.31204015625 0.7421875
vt 0.15671015625 0.7421875
vt 0.159946171875 0.734375
vt 0.30880421875 0.734375
vt 0.3120403125 0.7421875
vt 0.15671015625 0.7421875
vt 0.15994625 0.734375
vt 0.30880421875 0.734375
vt 0.15579015625 0.7421875
vt 0.00046015625 0.7421875
vt 0.003696171875 0.734375
vt 0.15255421875 0.734375
vt 0.152974609375 0.59375
vt 0.13654796875 0.554092734375
vt 0.020543046875 0.554092734375
vt 0.004116484375 0.59375
vt 0.152974609375 0.59375
vt 0.13654796875 0.554092734375
vt 0.020543046875 0.554092734375
vt 0.004116484375 0.59375
vt 0.152974609375 0.59375
vt 0.13654796875 0.554092734375
vt 0.020543046875 0.554092734375
vt 0.004116484375 0.59375
vt 0.15670984375 0.734374921875
vt 0.234375078125 0.734374921875
vt 0.234375078125 0.9453125
vt 0.15670984375 0.9453125
vt 0.00369625 0.734375
vt 0.078125234375 0.734375
vt 0.078125234375 0.7421875
vt 0.00046015625 0.7421875
vt 0.233954609375 0.59375
vt 0.233954609375 0.734375
vt 0.159525625 0.734375
vt 0.159525625 0.59375
vt 0.13654796875 0.554092734375
vt 0.078545546875 0.554092734375
vt 0.078545546875 0.59375
vt 0.152974609375 0.59375
vt 0.133527578125 0.484375
vt 0.07851484375 0.484375
vt 0.07851484375 0.4765625
vt 0.13676359375 0.4765625
vt 0.312040390625 0.734374921875
vt 0.312040390625 0.9453125
vt 0.15670984375 0.9453125
vt 0.15670984375 0.734374921875
vt 0.308383515625 0.59375
vt 0.308383515625 0.734375
vt 0.159525625 0.734375
vt 0.159525625 0.59375
vt 0.159525625 0.734375
vt 0.159525625 0.734375
vt 0.308383515625 0.734375
vt 0.308383515625 0.734375
vt 0.003275625 0.734375
vt 0.003275625 0.734375
vt 0.152133515625 0.734375
vt 0.152133515625 0.734375
vt 0.159525625 0.734375
vt 0.159525625 0.734375
vt 0.233954609375 0.734375
vt 0.233954609375 0.734375
vt 0.159525625 0.734375
vt 0.159525625 0.734375
vt 0.308383515625 0.734375
vt 0.308383515625 0.734375
vn 1 0 -1.2246467991473532e-16
vn 0.7071067811865476 -0.7071067811865476 -8.659560562354934e-17
vn 1 0 -1.2246467991473532e-16
vn 0.7071067811865476 -0.7071067811865476 -8.659560562354934e-17
vn -1.2246467991473532e-16 0 -1
vn -1.2246467991473532e-16 0 -1
vn -1.2246467991473532e-16 0 -1
vn -1.2246467991473532e-16 0 -1
vn 1.2246467991473532e-16 0 1
vn 1.2246467991473532e-16 0 1
vn 1.2246467991473532e-16 0 1
vn 1.2246467991473532e-16 0 1
vn 1.2246467991473532e-16 0 1
vn 1.2246467991473532e-16 0 1
vn 1.2246467991473532e-16 0 1
vn 1.2246467991473532e-16 0 1
vn 1.2246467991473532e-16 0 1
vn 0 -1 0
vn 1.2246467991473532e-16 0 1
vn 0 -1 0
vn 1.2246467991473532e-16 0 1
vn 1.2246467991473532e-16 0 1
vn 0.7071067811865476 0.7071067811865476 -8.659560562354934e-17
vn 0.7071067811865476 0.7071067811865476 -8.659560562354934e-17
vn 0 0 0
vn 0 0 0
vn 0 0 0
vn 0 0 0
usemtl m_fb4282bc-10f8-24fc-5e12-044afee62972
f 132/233/59 147/234/59 146/235/59 133/236/59
f 131/237/60 148/238/60 147/239/60 132/240/60
f 125/241/61 159/242/61 158/243/61 126/244/61
f 129/245/62 160/246/62 159/247/62 125/248/62
f 124/249/63 143/250/63 142/251/63 123/252/63
f 143/253/64 144/254/64 139/255/64 142/256/64
f 144/257/65 145/258/65 140/259/65 139/260/65
f 145/261/66 153/262/66 154/263/66 140/264/66
f 137/265/67 134/266/67 135/267/67 138/268/67
f 138/269/68 135/270/68 136/271/68 141/272/68
f 141/273/69 136/274/69 121/275/69 122/276/69
f 133/277/70 120/278/70 119/279/70 127/280/70
f 132/281/71 133/282/71 127/283/71 128/284/71
f 131/285/72 132/286/72 128/287/72 130/288/72
f 118/289/73 124/290/73 143/291/73 126/292/73
f 126/293/74 143/294/74 144/295/74 125/296/74
f 125/297/75 144/298/75 145/299/75 129/300/75
f 131/301/76 149/302/76 150/303/76 148/304/76
f 130/305/77 151/306/77 149/307/77 131/308/77
f 152/309/78 161/310/78 160/311/78 129/312/78
f 145/313/79 153/314/79 152/315/79 129/316/79
f 137/317/80 155/318/80 156/319/80 134/320/80
f 133/321/81 146/322/81 157/323/81 120/324/81
f 126/325/82 158/326/82 162/327/82 118/328/82
f 127/329/83 158/330/83 159/331/83 128/332/83
f 128/333/84 159/334/84 160/335/84 130/336/84
f 130/337/85 160/338/85 161/339/85 151/340/85
f 119/341/86 162/342/86 158/343/86 127/344/86
o zincs
v 1.73183113374766e-17 0 0.5
v -1.893408360186393e-16 0 -1.1875
v 1.73183113374766e-17 0.0625 0.5
v 1.5509107624155381e-16 0.0625 1.625
v 1.5509107624155381e-16 0.375 1.625
v 1.73183113374766e-17 0.375 0.5
v -1.893408360186393e-16 0.375 -1.1875
vt 0.2109375 0.3046875
vt 0.2109375 0.3515625
vt 0 0.3515625
vt 0 0.3046875
vt 0.3515625 0.3125
vt 0.3515625 0.3515625
vt 0.2109375 0.3515625
vt 0.2109375 0.3125
vn -1 0 1.2246467991473532e-16
vn -1 0 1.2246467991473532e-16
usemtl m_fb4282bc-10f8-24fc-5e12-044afee62972
f 163/345/87 168/346/87 169/347/87 164/348/87
f 166/349/88 167/350/88 168/351/88 165/352/88
o casing
v 0.5954318750000002 2.9375 1.6256249999999999
v 0.595431875 2.9375 0.5
v -0.595431875 2.9375 0.5
v -0.5954318749999999 2.9375 1.625625
v 0.621320625 3 0.5
v -0.621320625 3 0.5
v 0.46599000000000024 2.625 2.125
v -0.4659899999999998 2.625 2.125
v 1.375 2.0695437500000002 0.375
v 1.375 0.93045625 0.375
v 0.56954375 2.875 0.375
v -0.56954375 2.875 0.375
v -1.375 2.0695437500000002 0.375
v -1.375 0.93045625 0.375
v -0.56954375 0.125 0.375
v 0.56954375 0.125 0.375
v 0.4401018750000002 2.5625 2.125
v 0.44010187500000014 2.5625 1.625
v -0.4401018749999998 2.5625 1.625
v -0.44010187499999975 2.5625 2.125
v -0.4999999999999995 1.292893125 4.3125
v -0.20710687499999952 1 4.3125
v 0.20710687500000047 1 4.3125
v 0.5000000000000004 1.292893125 4.3125
v 0.5000000000000004 1.707106875 4.3125
v 0.20710687500000047 2 4.3125
v -0.20710687499999952 2 4.3125
v -0.4999999999999995 1.707106875 4.3125
v -0.18749999999999953 1.6875 4.1875
v -0.18749999999999953 1.3125 4.1875
v 0.18750000000000047 1.6875 4.1875
v 0.18750000000000047 1.3125 4.1875
v 1.3749999999999998 2.0695437500000002 -1.625
v 1.3749999999999998 0.93045625 -1.625
v 0.5695437499999997 2.875 -1.625
v -0.5695437500000003 2.875 -1.625
v -1.3750000000000002 2.0695437500000002 -1.625
v -1.3750000000000002 0.93045625 -1.625
v -0.5695437500000003 0.125 -1.625
v 0.5695437499999997 0.125 -1.625
v -0.46401937499999985 2.6202425 1.625625
v 0.4640193750000002 2.6202425 1.6256249999999999
v -0.6213206250000002 3 -1.1875
v 0.6213206249999997 3 -1.1875
vt 0.155790703125 0.734374921875
vt 0.155790703125 0.9453125
vt 0.00046015625 0.9453125
vt 0.00046015625 0.734374921875
vt 0.152133515625 0.734375
vt 0.003275625 0.734375
vt 0.003275625 0.59375
vt 0.152133515625 0.59375
vt 0.13654796875 0.554092734375
vt 0.020543046875 0.554092734375
vt 0.023532734375 0.546874921875
vt 0.13355828125 0.546874921875
vt 0.023157109375 0.484375
vt 0.01992109375 0.4765625
vt 0.13641859375 0.4765625
vt 0.133182578125 0.484375
vt 0.1557903125 0.7421875
vt 0.00046015625 0.7421875
vt 0.00369625 0.734375
vt 0.15255421875 0.734375
vt 0.152974609375 0.59375
vt 0.13654796875 0.554092734375
vt 0.020543046875 0.554092734375
vt 0.004116484375 0.59375
vn 0 1 0
vn 0 1 0
vn -1.2245750673742278e-16 0.010823282531954054 -0.999941426562193
vn 1.2246467991473532e-16 0 1
vn 1.2246467991473532e-16 0 1
vn 1.2246467991473532e-16 0 1
usemtl m_fb4282bc-10f8-24fc-5e12-044afee62972
f 174/353/89 213/354/89 212/355/89 175/356/89
f 171/357/90 172/358/90 173/359/90 170/360/90
f 210/361/91 211/362/91 187/363/91 188/364/91
f 186/365/92 176/366/92 177/367/92 189/368/92
f 174/369/93 175/370/93 172/371/93 171/372/93
f 173/373/94 210/374/94 211/375/94 170/376/94
o casing_interior
v -0.44010187499999975 2.5625 2.125
v -0.4401018749999998 2.5625 1.625
v -0.4659899999999998 2.625 2.125
v 0.4401018750000002 2.5625 2.125
v 0.44010187500000014 2.5625 1.625
v 0.46599000000000024 2.625 2.125
v -0.46598999999999985 2.625 1.625
v 0.4659900000000002 2.625 1.625
v -0.4659900000000002 2.625 -1.1875
v 0.46598999999999985 2.625 -1.1875
vt 0.13378875 0.484374921875
vt 0.13378875 0.546874921875
vt 0.023762890625 0.546874921875
vt 0.023762890625 0.484374921875
vt 0.324563671875 0.52343734375
vt 0.441061328125 0.52343734375
vt 0.441061328125 0.46093734374999995
vt 0.324563671875 0.46093734374999995
vt 0.441061328125 0.52343734375
vt 0.441061328125 0.874999921875
vt 0.324563671875 0.874999921875
vt 0.324563671875 0.52343734375
vn 0 -1 0
vn 0 1 0
vn 0 -1 0
usemtl m_fb4282bc-10f8-24fc-5e12-044afee62972
f 214/377/95 215/378/95 218/379/95 217/380/95
f 221/381/96 220/382/96 216/383/96 219/384/96
f 220/385/97 222/386/97 223/387/97 221/388/97
o intakecowling
v -0.4659900000000002 0.375 -1.1875
v -1.1250000000000002 1.0340099999999999 -1.1875
v -1.1250000000000002 1.9659900000000001 -1.1875
v -0.4659900000000002 2.625 -1.1875
v 0.46598999999999985 2.625 -1.1875
v 1.1249999999999998 1.9659900000000001 -1.1875
v 1.1249999999999998 1.0340099999999999 -1.1875
v 0.46598999999999985 0.375 -1.1875
v -0.5177668750000003 2.75 -1.875
v -0.5177675000000004 2.75000125 -2.125
v 0.5177674999999997 2.75000125 -2.125
v 0.5177668749999996 2.75 -1.875
v -0.4659900000000003 2.625 -1.875
v 0.46598999999999974 2.625 -1.875
v -0.5177668750000003 0.25 -1.875
v 0.5177668749999996 0.25 -1.875
v 0.5177674999999997 0.24999875000000005 -2.125
v -0.5177675000000004 0.24999875000000005 -2.125
v -1.2500000000000002 0.982233125 -1.875
v -1.2500012500000004 0.9822325 -2.125
v -1.2500000000000002 2.017766875 -1.875
v -1.2500012500000004 2.0177675 -2.125
v 1.2499999999999998 2.017766875 -1.875
v 1.2500012499999995 2.0177675 -2.125
v 1.2499999999999998 0.982233125 -1.875
v 1.2500012499999995 0.9822325 -2.125
v 0.46598999999999974 0.375 -1.875
v -0.4659900000000003 0.375 -1.875
v 1.1249999999999998 1.0340099999999999 -1.875
v -1.1250000000000002 1.0340099999999999 -1.875
v -1.1250000000000002 1.9659900000000001 -1.875
v 1.1249999999999998 1.9659900000000001 -1.875
v -0.6213206250000002 3 -1.1875
v 0.6213206249999997 3 -1.1875
v 1.4999999999999998 2.121320625 -1.1875
v 1.4999999999999998 0.878679375 -1.1875
v 0.6213206249999997 0 -1.1875
v -0.6213206250000002 0 -1.1875
v -1.5000000000000002 0.878679375 -1.1875
v -1.5000000000000002 2.121320625 -1.1875
v -0.6213206250000003 3 -1.625
v 0.6213206249999996 3 -1.625
v 0.46598999999999974 2.625 -1.875
v -0.4659900000000003 2.625 -1.875
v 0.5695437499999997 2.875 -1.625
v 0.5695437499999997 2.875 -2.125
v -0.5695437500000003 2.875 -2.125
v -0.5695437500000003 2.875 -1.625
v 0.5177674999999997 2.75000125 -2.125
v -0.5177675000000004 2.75000125 -2.125
v -0.5177668750000003 2.75 -1.875
v 0.5177668749999996 2.75 -1.875
v -0.6213206250000003 0 -1.625
v -1.5000000000000002 0.878679375 -1.625
v -1.5000000000000002 2.121320625 -1.625
v 1.4999999999999998 2.121320625 -1.625
v 1.4999999999999998 0.878679375 -1.625
v 0.6213206249999996 0 -1.625
v 1.2500012499999995 0.9822325 -2.125
v 1.1249999999999998 1.0340099999999999 -1.875
v 0.46598999999999974 0.375 -1.875
v -0.4659900000000003 0.375 -1.875
v 1.1249999999999998 1.9659900000000001 -1.875
v -1.1250000000000002 1.9659900000000001 -1.875
v -1.1250000000000002 1.0340099999999999 -1.875
v 1.3749999999999998 0.93045625 -1.625
v 1.3749999999999998 2.0695437500000002 -1.625
v 1.3749999999999996 2.0695437500000002 -2.125
v 1.3749999999999996 0.93045625 -2.125
v -1.3750000000000002 2.0695437500000002 -1.625
v -1.3750000000000004 2.0695437500000002 -2.125
v -1.3750000000000002 0.93045625 -1.625
v -1.3750000000000004 0.93045625 -2.125
v -0.5695437500000003 0.125 -1.625
v -0.5695437500000003 0.125 -2.125
v 0.5695437499999997 0.125 -1.625
v 0.5695437499999997 0.125 -2.125
v 1.2500012499999995 2.0177675 -2.125
v -1.2500012500000004 2.0177675 -2.125
v -1.2500012500000004 0.9822325 -2.125
v -0.5177675000000004 0.24999875000000005 -2.125
v 0.5177674999999997 0.24999875000000005 -2.125
v -0.5177668750000003 0.25 -1.875
v 0.5177668749999996 0.25 -1.875
v -1.2500000000000002 0.982233125 -1.875
v -1.2500000000000002 2.017766875 -1.875
v 1.2499999999999998 2.017766875 -1.875
v 1.2499999999999998 0.982233125 -1.875
vt 0.447533671875 0.968749921875
vt 0.447533671875 1
vt 0.318091484375 1
vt 0.318091484375 0.968749921875
vt 0.324563671875 0.960937421875
vt 0.324563671875 0.874999921875
vt 0.441061328125 0.874999921875
vt 0.441061328125 0.960937421875
vt 0.318091484375 0.968749921875
vt 0.447533671875 0.968749921875
vt 0.447533671875 1
vt 0.318091484375 1
vt 0.318091484375 0.968749921875
vt 0.447533671875 0.968749921875
vt 0.447533671875 1
vt 0.318091484375 1
vt 0.318091484375 0.968749921875
vt 0.447533671875 0.968749921875
vt 0.447533671875 1
vt 0.318091484375 1
vt 0.318091484375 0.968749921875
vt 0.447533671875 0.968749921875
vt 0.447533671875 1
vt 0.318091484375 1
vt 0.318091484375 0.968749921875
vt 0.447533671875 0.968749921875
vt 0.447533671875 1
vt 0.318091484375 1
vt 0.318091484375 0.968749921875
vt 0.447533671875 0.968749921875
vt 0.447533671875 1
vt 0.318091484375 1
vt 0.318091484375 0.968749921875
vt 0.447533671875 0.968749921875
vt 0.447533671875 1
vt 0.318091484375 1
vt 0.324563671875 0.960937421875
vt 0.324563671875 0.874999921875
vt 0.441061328125 0.874999921875
vt 0.441061328125 0.960937421875
vt 0.324563671875 0.960937421875
vt 0.324563671875 0.874999921875
vt 0.441061328125 0.874999921875
vt 0.441061328125 0.960937421875
vt 0.324563671875 0.960937421875
vt 0.324563671875 0.874999921875
vt 0.441061328125 0.874999921875
vt 0.441061328125 0.960937421875
vt 0.324563671875 0.960937421875
vt 0.324563671875 0.874999921875
vt 0.441061328125 0.874999921875
vt 0.441061328125 0.960937421875
vt 0.324563671875 0.960937421875
vt 0.324563671875 0.874999921875
vt 0.441061328125 0.874999921875
vt 0.441061328125 0.960937421875
vt 0.324563671875 0.960937421875
vt 0.324563671875 0.874999921875
vt 0.441061328125 0.874999921875
vt 0.441061328125 0.960937421875
vt 0.324563671875 0.960937421875
vt 0.324563671875 0.874999921875
vt 0.441061328125 0.874999921875
vt 0.441061328125 0.960937421875
vt 0.149318515625 0.382812421875
vt 0.0069325 0.382812421875
vt 0.0069325 0.445312421875
vt 0.149318515625 0.445312421875
vt 0.14284609375 0.367187421875
vt 0.149318125 0.38281226562500004
vt 0.006932109375 0.38281226562500004
vt 0.013404140625 0.367187421875
vt 0.14931828125 0.445312421875
vt 0.00693234375 0.445312421875
vt 0.000460234375 0.460937421875
vt 0.155790390625 0.460937421875
vt 0.31809140625 0.96875
vt 0.324563515625 0.953125
vt 0.441061015625 0.953125
vt 0.447533125 0.96875
vt 0.0069325 0.382812421875
vt 0.0069325 0.445312421875
vt 0.149318515625 0.445312421875
vt 0.149318515625 0.382812421875
vt 0.0069325 0.382812421875
vt 0.0069325 0.445312421875
vt 0.149318515625 0.445312421875
vt 0.149318515625 0.382812421875
vt 0.0069325 0.382812421875
vt 0.0069325 0.445312421875
vt 0.149318515625 0.445312421875
vt 0.149318515625 0.382812421875
vt 0.0069325 0.382812421875
vt 0.0069325 0.445312421875
vt 0.149318515625 0.445312421875
vt 0.149318515625 0.382812421875
vt 0.0069325 0.382812421875
vt 0.0069325 0.445312421875
vt 0.149318515625 0.445312421875
vt 0.149318515625 0.382812421875
vt 0.0069325 0.382812421875
vt 0.0069325 0.445312421875
vt 0.149318515625 0.445312421875
vt 0.149318515625 0.382812421875
vt 0.0069325 0.382812421875
vt 0.0069325 0.445312421875
vt 0.149318515625 0.445312421875
vt 0.149318515625 0.382812421875
vt 0.14284609375 0.367187421875
vt 0.149318125 0.38281226562500004
vt 0.006932109375 0.38281226562500004
vt 0.013404140625 0.367187421875
vt 0.14284609375 0.367187421875
vt 0.149318125 0.38281226562500004
vt 0.006932109375 0.38281226562500004
vt 0.013404140625 0.367187421875
vt 0.14284609375 0.367187421875
vt 0.149318125 0.38281226562500004
vt 0.006932109375 0.38281226562500004
vt 0.013404140625 0.367187421875
vt 0.14284609375 0.367187421875
vt 0.149318125 0.38281226562500004
vt 0.006932109375 0.38281226562500004
vt 0.013404140625 0.367187421875
vt 0.14284609375 0.367187421875
vt 0.149318125 0.38281226562500004
vt 0.006932109375 0.38281226562500004
vt 0.013404140625 0.367187421875
vt 0.14284609375 0.367187421875
vt 0.149318125 0.38281226562500004
vt 0.006932109375 0.38281226562500004
vt 0.013404140625 0.367187421875
vt 0.14284609375 0.367187421875
vt 0.149318125 0.38281226562500004
vt 0.006932109375 0.38281226562500004
vt 0.013404140625 0.367187421875
vt 0.000460234375 0.460937421875
vt 0.155790390625 0.460937421875
vt 0.14931828125 0.445312421875
vt 0.00693234375 0.445312421875
vt 0.14931828125 0.445312421875
vt 0.00693234375 0.445312421875
vt 0.000460234375 0.460937421875
vt 0.155790390625 0.460937421875
vt 0.14931828125 0.445312421875
vt 0.00693234375 0.445312421875
vt 0.000460234375 0.460937421875
vt 0.155790390625 0.460937421875
vt 0.14931828125 0.445312421875
vt 0.00693234375 0.445312421875
vt 0.000460234375 0.460937421875
vt 0.155790390625 0.460937421875
vt 0.14931828125 0.445312421875
vt 0.00693234375 0.445312421875
vt 0.000460234375 0.460937421875
vt 0.155790390625 0.460937421875
vt 0.14931828125 0.445312421875
vt 0.00693234375 0.445312421875
vt 0.000460234375 0.460937421875
vt 0.155790390625 0.460937421875
vt 0.000460234375 0.460937421875
vt 0.155790390625 0.460937421875
vt 0.14931828125 0.445312421875
vt 0.00693234375 0.445312421875
vt 0.31809140625 0.96875
vt 0.324563515625 0.953125
vt 0.441061015625 0.953125
vt 0.447533125 0.96875
vt 0.31809140625 0.96875
vt 0.324563515625 0.953125
vt 0.44106109375 0.953125
vt 0.447533125 0.96875
vt 0.31809140625 0.96875
vt 0.324563515625 0.953125
vt 0.44106109375 0.953125
vt 0.447533125 0.96875
vt 0.31809140625 0.96875
vt 0.324563515625 0.953125
vt 0.441061015625 0.953125
vt 0.447533125 0.96875
vt 0.31809140625 0.96875
vt 0.324563515625 0.953125
vt 0.44106109375 0.953125
vt 0.447533125 0.96875
vt 0.31809140625 0.96875
vt 0.324563515625 0.953125
vt 0.44106109375 0.953125
vt 0.447533125 0.96875
vt 0.31809140625 0.96875
vt 0.324563515625 0.953125
vt 0.441061015625 0.953125
vt 0.447533125 0.96875
vt 0.00046015625 1
vt 0.00046015625 0.9453125
vt 0.155790703125 0.9453125
vt 0.155790703125 1
vt 0.15670984375 1
vt 0.15670984375 0.9453125
vt 0.312040390625 0.9453125
vt 0.312040390625 1
vt 0.15670984375 1
vt 0.15670984375 0.9453125
vt 0.312040390625 0.9453125
vt 0.312040390625 1
vt 0.00046015625 1
vt 0.00046015625 0.9453125
vt 0.155790703125 0.9453125
vt 0.155790703125 1
vt 0.15670984375 1
vt 0.15670984375 0.9453125
vt 0.312040390625 0.9453125
vt 0.312040390625 1
vt 0.155790703125 1
vt 0.155790703125 0.9453125
vt 0.00046015625 0.9453125
vt 0.00046015625 1
vt 0.15670984375 1
vt 0.15670984375 0.9453125
vt 0.312040390625 0.9453125
vt 0.312040390625 1
vt 0.15670984375 1
vt 0.15670984375 0.9453125
vt 0.312040390625 0.9453125
vt 0.312040390625 1
vt 0.312473515625 0.4609375
vt 0.2930571875 0.5078125
vt 0.1765596875 0.5078125
vt 0.157143359375 0.4609375
vt 0.312473359375 0.4609375
vt 0.2930571875 0.507812578125
vt 0.176559609375 0.507812578125
vt 0.157143359375 0.4609375
vt 0.312473515625 0.4609375
vt 0.2930571875 0.5078125
vt 0.1765596875 0.5078125
vt 0.157143359375 0.4609375
vt 0.312473359375 0.4609375
vt 0.2930571875 0.507812578125
vt 0.176559609375 0.507812578125
vt 0.157143359375 0.4609375
vt 0.312473515625 0.4609375
vt 0.2930571875 0.5078125
vt 0.1765596875 0.5078125
vt 0.157143359375 0.4609375
vt 0.312473359375 0.4609375
vt 0.2930571875 0.507812578125
vt 0.176559609375 0.507812578125
vt 0.157143359375 0.4609375
vt 0.312473515625 0.4609375
vt 0.2930571875 0.5078125
vt 0.1765596875 0.5078125
vt 0.157143359375 0.4609375
vt 0.312473359375 0.4609375
vt 0.2930571875 0.507812578125
vt 0.176559609375 0.507812578125
vt 0.157143359375 0.4609375
vn -6.123233995428414e-22 -0.9999999999875001 -0.000004999999999748211
vn 0 -1 0
vn -0.9999999999875001 0 -0.0000049999999996257465
vn -0.7071067811766039 -0.7071067811766039 -0.0000053033008590086435
vn 0.7071067811766039 -0.7071067811766039 -0.000005303300859181835
vn 0.9999999999875001 0 -0.000004999999999870676
vn 0.7071067811766039 0.7071067811766039 -0.000005303300859181835
vn -6.123233995428414e-22 0.9999999999875001 -0.000004999999999748211
vn -0.7071067811766039 0.7071067811766039 -0.0000053033008590086435
vn -1 0 1.2246467991473532e-16
vn -0.7071067811865476 -0.7071067811865476 8.659560562354934e-17
vn 0.7071067811865476 -0.7071067811865476 -8.659560562354934e-17
vn 1 0 -1.2246467991473532e-16
vn 0.7071067811865476 0.7071067811865476 -8.659560562354934e-17
vn 0 1 0
vn -0.7071067811865476 0.7071067811865476 8.659560562354934e-17
vn 0 1 0
vn -1.2246467991473532e-16 0 -1
vn -1.2246467991473532e-16 0 -1
vn -1.2246467991473532e-16 0 -1
vn 1 0 -1.2246467991473532e-16
vn 0.7071067811865476 0.7071067811865476 -8.659560562354934e-17
vn -0.7071067811865476 0.7071067811865476 8.659560562354934e-17
vn -1 0 1.2246467991473532e-16
vn -0.7071067811865476 -0.7071067811865476 8.659560562354934e-17
vn 0 -1 0
vn 0.7071067811865476 -0.7071067811865476 -8.659560562354934e-17
vn -1.2246467991473532e-16 0 -1
vn -1.2246467991473532e-16 0 -1
vn -1.2246467991473532e-16 0 -1
vn -1.2246467991473532e-16 0 -1
vn -1.2246467991473532e-16 0 -1
vn -1.2246467991473532e-16 0 -1
vn -1.2246467991473532e-16 0 -1
vn -1.2246467991473532e-16 0 -1
vn -1.2246467991473532e-16 0 -1
vn -1.2246467991473532e-16 0 -1
vn -1.2246467991473532e-16 0 -1
vn -1.2246467991473532e-16 0 -1
vn -1.2246467991473532e-16 0 -1
vn -1.2246467991473532e-16 0 -1
vn -1.2246467991473532e-16 0 -1
vn -1.2246467991473532e-16 0 -1
vn -1.2246467991473532e-16 0 -1
vn -1.2246467991473532e-16 0 -1
vn -1.2246467991473532e-16 0 -1
vn -1.2246467991473532e-16 0 -1
vn -1.2246467991473532e-16 0 -1
vn 0 1 0
vn 0.7071067811865476 0.7071067811865476 -8.659560562354934e-17
vn 1 0 -1.2246467991473532e-16
vn 0.7071067811865476 -0.7071067811865476 -8.659560562354934e-17
vn 0 -1 0
vn -0.7071067811865476 -0.7071067811865476 8.659560562354934e-17
vn -1 0 1.2246467991473532e-16
vn -0.7071067811865476 0.7071067811865476 8.659560562354934e-17
vn 1.2246467991473532e-16 0 1
vn 1.2246467991473532e-16 0 1
vn 1.2246467991473532e-16 0 1
vn 1.2246467991473532e-16 0 1
vn 1.2246467991473532e-16 0 1
vn 1.2246467991473532e-16 0 1
vn 1.2246467991473532e-16 0 1
vn 1.2246467991473532e-16 0 1
usemtl m_fb4282bc-10f8-24fc-5e12-044afee62972
f 232/389/98 233/390/98 234/391/98 235/392/98
f 237/393/99 228/394/99 227/395/99 236/396/99
f 248/397/100 246/398/100 247/399/100 249/400/100
f 246/401/101 235/402/101 234/403/101 247/404/101
f 232/405/102 244/406/102 245/407/102 233/408/102
f 244/409/103 242/410/103 243/411/103 245/412/103
f 242/413/104 238/414/104 241/415/104 243/416/104
f 238/417/105 239/418/105 240/419/105 241/420/105
f 239/421/106 248/422/106 249/423/106 240/424/106
f 252/425/107 230/426/107 229/427/107 255/428/107
f 255/429/108 229/430/108 228/431/108 237/432/108
f 236/433/109 227/434/109 226/435/109 254/436/109
f 254/437/110 226/438/110 225/439/110 253/440/110
f 253/441/111 225/442/111 224/443/111 251/444/111
f 251/445/112 224/446/112 231/447/112 250/448/112
f 250/449/113 231/450/113 230/451/113 252/452/113
f 269/453/114 270/454/114 271/455/114 268/456/114
f 273/457/115 270/458/115 269/459/115 272/460/115
f 268/461/116 271/462/116 264/463/116 265/464/116
f 275/465/117 266/466/117 267/467/117 274/468/117
f 291/469/118 290/470/118 289/471/118 292/472/118
f 269/473/119 268/474/119 290/475/119 291/476/119
f 294/477/120 293/478/120 271/479/120 270/480/120
f 296/481/121 295/482/121 293/483/121 294/484/121
f 298/485/122 297/486/122 295/487/122 296/488/122
f 300/489/123 299/490/123 297/491/123 298/492/123
f 292/493/124 289/494/124 299/495/124 300/496/124
f 272/497/125 269/498/125 291/499/125 301/500/125
f 301/501/126 291/502/126 292/503/126 282/504/126
f 282/505/127 292/506/127 300/507/127 305/508/127
f 305/509/128 300/510/128 298/511/128 304/512/128
f 304/513/129 298/514/129 296/515/129 303/516/129
f 303/517/130 296/518/130 294/519/130 302/520/130
f 302/521/131 294/522/131 270/523/131 273/524/131
f 281/525/132 276/526/132 297/527/132 299/528/132
f 295/529/133 297/530/133 276/531/133 277/532/133
f 299/533/134 289/534/134 280/535/134 281/536/134
f 289/537/135 290/538/135 279/539/135 280/540/135
f 290/541/136 268/542/136 265/543/136 279/544/136
f 271/545/137 293/546/137 278/547/137 264/548/137
f 277/549/138 278/550/138 293/551/138 295/552/138
f 306/553/139 285/554/139 284/555/139 307/556/139
f 307/557/140 284/558/140 283/559/140 311/560/140
f 308/561/141 288/562/141 285/563/141 306/564/141
f 309/565/142 287/566/142 288/567/142 308/568/142
f 274/569/143 267/570/143 287/571/143 309/572/143
f 310/573/144 286/574/144 266/575/144 275/576/144
f 311/577/145 283/578/145 286/579/145 310/580/145
f 264/581/146 256/582/146 257/583/146 265/584/146
f 265/585/147 257/586/147 258/587/147 279/588/147
f 279/589/148 258/590/148 259/591/148 280/592/148
f 280/593/149 259/594/149 260/595/149 281/596/149
f 281/597/150 260/598/150 261/599/150 276/600/150
f 276/601/151 261/602/151 262/603/151 277/604/151
f 277/605/152 262/606/152 263/607/152 278/608/152
f 278/609/153 263/610/153 256/611/153 264/612/153
f 256/613/154 227/614/154 228/615/154 257/616/154
f 257/617/155 228/618/155 229/619/155 258/620/155
f 258/621/156 229/622/156 230/623/156 259/624/156
f 259/625/157 230/626/157 231/627/157 260/628/157
f 260/629/158 231/630/158 224/631/158 261/632/158
f 261/633/159 224/634/159 225/635/159 262/636/159
f 262/637/160 225/638/160 226/639/160 263/640/160
f 263/641/161 226/642/161 227/643/161 256/644/161
o mount
v 0.5 4 -3.5
v 0.5 4 -4.5
v 0.5 3 -3.5
v 0.5 3 -4.5
v -0.5 4 -3.5
v -0.5 4 -4.5
v -0.5 3 -3.5
v -0.5 3 -4.5
vt 1 1
vt 0 1
vt 0 0.5
vt 1 0.5
vt 1 0.5
vt 1 1
vt 0 1
vt 0 0.5
vt 0 0
vt 1 0
vt 1 1
vt 0 1
vt 1 0
vt 1 1
vt 0 1
vt 0 0
vt 1 0.5
vt 1 1
vt 0 1
vt 0 0.5
vt 1 1
vt 0 1
vt 0 0.5
vt 1 0.5
vn 1 0 0
vn -1 0 0
vn 0 1 0
vn 0 -1 0
vn 0 0 1
vn 0 0 -1
usemtl none
f 313/645/162 312/646/162 314/647/162 315/648/162
f 318/649/163 316/650/163 317/651/163 319/652/163
f 316/653/164 312/654/164 313/655/164 317/656/164
f 315/657/165 314/658/165 318/659/165 319/660/165
f 314/661/166 312/662/166 316/663/166 318/664/166
f 317/665/167 313/666/167 315/667/167 319/668/167
o mesh
v 0.1875 3.1875 0.625
v 0.1875 3.1875 -2.375
v 0.1875 2.625 0.625
v 0.1875 2.625 -2.375
v -0.1875 3.1875 0.625
v -0.1875 3.1875 -2.375
v -0.1875 2.625 0.625
v -0.1875 2.625 -2.375
vt 0 0.15625
vt 0.375 0.15625
vt 0.375 0.0859375
vt 0 0.0859375
vt 0.375 0.0859375
vt 0.375 0.15625
vt 0 0.15625
vt 0 0.0859375
vt 0.375 0.15625
vt 0.375 0.203125
vt 0 0.203125
vt 0 0.15625
vt 0.5625 0.015625
vt 0.5625 0.0859375
vt 0.515625 0.0859375
vt 0.515625 0.015625
vt 0.375 0.25
vt 0.375 0.203125
vt 0 0.203125
vt 0 0.25
vn 1 0 0
vn -1 0 0
vn 0 1 0
vn 0 0 1
vn 0 -1 0
usemtl m_fb4282bc-10f8-24fc-5e12-044afee62972
f 321/669/168 320/670/168 322/671/168 323/672/168
f 326/673/169 324/674/169 325/675/169 327/676/169
f 324/677/170 320/678/170 321/679/170 325/680/170
f 322/681/171 320/682/171 324/683/171 326/684/171
f 322/685/172 326/686/172 327/687/172 323/688/172
o mesh
v 0.284771875 3.1875 -2.375
v 0.284771875 3.1875 -3.375
v 0.284771875 2.1875 -2.375
v 0.284771875 2.1875 -3.375
v -0.284771875 3.1875 -2.375
v -0.284771875 3.1875 -3.375
v -0.284771875 2.1875 -2.375
v -0.284771875 2.1875 -3.375
vt 0.375 0.2109375
vt 0.5 0.2109375
vt 0.5 0.0859375
vt 0.375 0.0859375
vt 0.5 0.0859375
vt 0.5 0.2109375
vt 0.375 0.2109375
vt 0.375 0.0859375
vt 0.50389140625 0.0859375
vt 0.575084375 0.0859375
vt 0.575084375 0.2109375
vt 0.50389140625 0.2109375
vt 0.575084765625 0.2109375
vt 0.503891796875 0.2109375
vt 0.503891796875 0.0859375
vt 0.575084765625 0.0859375
vt 0.50389140625 0.0859375
vt 0.575084375 0.0859375
vt 0.575084375 0.2109375
vt 0.50389140625 0.2109375
vn 1 0 0
vn -1 0 0
vn 0 1 0
vn 0 0 -1
vn 0 0 1
usemtl m_fb4282bc-10f8-24fc-5e12-044afee62972
f 329/689/173 328/690/173 330/691/173 331/692/173
f 334/693/174 332/694/174 333/695/174 335/696/174
f 332/697/175 328/698/175 329/699/175 333/700/175
f 333/701/176 329/702/176 331/703/176 335/704/176
f 334/705/177 330/706/177 328/707/177 332/708/177
o sproing
v 0.125 3.6274882419831984 -3.4644168448956627
v 0.125 3.1293908929373258 -3.5079947162694918
v 0.125 3.289759738836022 0.395837610209851
v 0.125 2.791662389790149 0.35225973883602174
v -0.125 3.6274882419831984 -3.4644168448956627
v -0.125 3.1293908929373258 -3.5079947162694918
v -0.125 3.289759738836022 0.395837610209851
v -0.125 2.791662389790149 0.35225973883602174
vt 0 0.03125
vt 0 0.0859375
vt 0.484375 0.0859375
vt 0.484375 0.03125
vt 0.484375 0.0859375
vt 0 0.0859375
vt 0 0.03125
vt 0.484375 0.03125
vt 0 -0.0625
vt 1 -0.0625
vt 1 0.9375
vt 0 0.9375
vt 0.515625 0.03125
vt 0.515625 0.0859375
vt 0.484375 0.0859375
vt 0.484375 0.03125
vt 0.484375 0.03125
vt 0 0.03125
vt 0 0
vt 0.484375 0
vt 1 1
vt 0 1
vt 0 0.5
vt 1 0.5
vn 1 0 0
vn -1 0 0
vn 0 0.08715574274765849 -0.9961946980917457
vn 0 -0.08715574274765849 0.9961946980917457
vn 0 0.9961946980917457 0.08715574274765849
vn 0 -0.9961946980917457 -0.08715574274765849
usemtl m_fb4282bc-10f8-24fc-5e12-044afee62972
f 337/709/178 336/710/178 338/711/178 339/712/178
f 342/713/179 340/714/179 341/715/179 343/716/179
usemtl none
f 340/717/180 336/718/180 337/719/180 341/720/180
usemtl m_fb4282bc-10f8-24fc-5e12-044afee62972
f 339/721/181 338/722/181 342/723/181 343/724/181
f 338/725/182 336/726/182 340/727/182 342/728/182
usemtl none
f 341/729/183 337/730/183 339/731/183 343/732/183
o sproing
v 0.25 3.7696067811865475 -3.603553390593274
v 0.25 3.416053390593274 -3.9571067811865475
v 0.25 3.0625 -2.896446609406726
v 0.25 2.708946609406726 -3.25
v -0.25 3.7696067811865475 -3.603553390593274
v -0.25 3.416053390593274 -3.9571067811865475
v -0.25 3.0625 -2.896446609406726
v -0.25 2.708946609406726 -3.25
vt 0.5 0.2109375
vt 0.5 0.2734375
vt 0.375 0.2734375
vt 0.375 0.2109375
vt 0.375 0.2109375
vt 0.5 0.2109375
vt 0.5 0.2734375
vt 0.375 0.2734375
vt 0.375 0.2109375
vt 0.5 0.2109375
vt 0.5 0.2734375
vt 0.375 0.2734375
vt 0.5 0.2109375
vt 0.5 0.2734375
vt 0.375 0.2734375
vt 0.375 0.2109375
vn 1 0 0
vn -1 0 0
vn 0 0.7071067811865476 0.7071067811865475
vn 0 -0.7071067811865476 -0.7071067811865475
usemtl m_fb4282bc-10f8-24fc-5e12-044afee62972
f 345/733/184 344/734/184 346/735/184 347/736/184
f 350/737/185 348/738/185 349/739/185 351/740/185
f 346/741/186 344/742/186 348/743/186 350/744/186
f 349/745/187 345/746/187 347/747/187 351/748/187