# Made in Blockbench 5.1.6
mtllib incomplete_engine.mtl

o chasis
v -1.25000125 0.9822325 0.5625
v 0 1.5 0.5625
v -0.5177675 0.24999875000000005 0.5625
v -1.25000125 2.0177675 0.5625
v 0.5177675 2.75000125 0.5625
v -0.5177675 2.75000125 0.5625
v 1.25000125 2.0177675 0.5625
v 1.25000125 0.9822325 0.5625
v 0.5177675 0.24999875000000005 0.5625
vt 0.835937265625 0.9339771875
vt 0.99218734375 0.998698359375
vt 0.99218734375 0.86925609375
vt 0.835937265625 0.933977578125
vt 0.9921875 0.998698359375
vt 0.9921875 0.869256875
vt 0.835937265625 0.9339771875
vt 0.99218734375 0.998698359375
vt 0.99218734375 0.86925609375
vt 0.835937265625 0.933977578125
vt 0.9921875 0.998698359375
vt 0.9921875 0.869256875
vt 0.835937265625 0.9339771875
vt 0.99218734375 0.998698359375
vt 0.99218734375 0.86925609375
vt 0.835937265625 0.933977578125
vt 0.9921875 0.998698359375
vt 0.9921875 0.869256875
vt 0.835937265625 0.9339771875
vt 0.99218734375 0.998698359375
vt 0.99218734375 0.86925609375
vt 0.835937265625 0.933977578125
vt 0.9921875 0.998698359375
vt 0.9921875 0.869256875
vn 0 0 1
vn 0 0 1
vn 0 0 1
vn 0 0 1
vn 0 0 1
vn 0 0 1
vn 0 0 1
vn 0 0 1
usemtl m_fb4282bc-10f8-24fc-5e12-044afee62972
f 2/1/1 3/2/1 9/3/1
f 2/4/2 9/5/2 8/6/2
f 2/7/3 8/8/3 7/9/3
f 2/10/4 7/11/4 5/12/4
f 2/13/5 5/14/5 6/15/5
f 2/16/6 6/17/6 4/18/6
f 2/19/7 4/20/7 1/21/7
f 2/22/8 1/23/8 3/24/8
o fannib
v 0 1.234835 0.5625
v 0.265165 1.5 0.5625
v 0.265165 1.5 1.0625
v 0 1.2348350000000001 1.0625
v -0.265165 1.5 0.5625
v -0.265165 1.5 1.0625
v 0 1.765165 0.5625
v 0 1.765165 1.0625
vt 1 0.78125
vt 0.953125 0.78125
vt 0.953125 0.71875
vt 1 0.71875
vt 0.953125 0.78125
vt 1 0.78125
vt 1 0.71875
vt 0.953125 0.71875
vt 1 0.78125
vt 0.953125 0.78125
vt 0.953125 0.71875
vt 1 0.71875
vt 0.953125 0.78125
vt 1 0.78125
vt 1 0.71875
vt 0.953125 0.71875
vt 0.507812578125 0.49218734374999995
vt 0.507812578125 0.539062421875
vt 0.4609375 0.539062421875
vt 0.4609375 0.49218734374999995
vn 0.7071067811865476 -0.7071067811865476 1.5700924586837752e-16
vn -0.7071067811865476 -0.7071067811865476 1.5700924586837752e-16
vn -0.7071067811865476 0.7071067811865476 -1.5700924586837752e-16
vn 0.7071067811865476 0.7071067811865476 -1.5700924586837752e-16
vn 0 2.220446049250313e-16 1
usemtl m_fb4282bc-10f8-24fc-5e12-044afee62972
f 10/25/9 11/26/9 12/27/9 13/28/9
f 14/29/10 10/30/10 13/31/10 15/32/10
f 16/33/11 14/34/11 15/35/11 17/36/11
f 11/37/12 16/38/12 17/39/12 12/40/12
f 13/41/13 12/42/13 17/43/13 15/44/13
o 0
v 1.1875 1.66126875 0.850624375
v 1.1875 1.68518625 0.792881875
v 1.1875 1.31481375 0.707118125
v 1.1875 1.33873125 0.649375625
v 0 1.66126875 0.850624375
v 0 1.68518625 0.792881875
v 0 1.31481375 0.707118125
v 0 1.33873125 0.649375625
vt 0.421875 0.4140625
vt 0.5703125 0.4140625
vt 0.5703125 0.421875
vt 0.421875 0.421875
vt 0.5703125 0.3828125
vt 0.5703125 0.390625
vt 0.421875 0.390625
vt 0.421875 0.3828125
vt 0.5703125 0.3828125
vt 0.5703125 0.421875
vt 0.421875 0.421875
vt 0.421875 0.3828125
vt 0.421875 0.421875
vt 0.5703125 0.421875
vt 0.5703125 0.3828125
vt 0.421875 0.3828125
vt 0.5703125 0.421875
vt 0.5625 0.421875
vt 0.5625 0.3828125
vt 0.5703125 0.3828125
vn 0 0.9238808144936852 0.3826803373711342
vn 0 -0.9238808144936852 -0.3826803373711342
vn 0 -0.38268318255406314 0.9238796359863625
vn 0 0.38268318255406314 -0.9238796359863625
vn 1 0 0
usemtl m_fb4282bc-10f8-24fc-5e12-044afee62972
f 22/45/14 18/46/14 19/47/14 23/48/14
f 21/49/15 20/50/15 24/51/15 25/52/15
f 20/53/16 18/54/16 22/55/16 24/56/16
f 23/57/17 19/58/17 21/59/17 25/60/17
f 19/61/18 18/62/18 20/63/18 21/64/18
o 1
v 1.0353920660739255 2.1034294732922234 0.850624375
v 1.0262392350803335 2.1255263620110623 0.792881875
v 1.1679746546339727 1.7833467898560258 0.707118125
v 1.1588218236403807 1.8054436785748644 0.649375625
v -0.06171487878322756 1.6489928973586796 0.850624375
v -0.0708677097768196 1.6710897860775182 0.792881875
v 0.0708677097768196 1.3289102139224818 0.707118125
v 0.06171487878322756 1.3510071026413204 0.649375625
vt 0.421875 0.4140625
vt 0.5703125 0.4140625
vt 0.5703125 0.421875
vt 0.421875 0.421875
vt 0.5703125 0.3828125
vt 0.5703125 0.390625
vt 0.421875 0.390625
vt 0.421875 0.3828125
vt 0.5703125 0.3828125
vt 0.5703125 0.421875
vt 0.421875 0.421875
vt 0.421875 0.3828125
vt 0.421875 0.421875
vt 0.5703125 0.421875
vt 0.5703125 0.3828125
vt 0.421875 0.3828125
vt 0.5703125 0.421875
vt 0.5625 0.421875
vt 0.5625 0.3828125
vt 0.5703125 0.3828125
vn -0.35355388118669817 0.8535545749905727 0.3826803373711342
vn 0.35355388118669817 -0.8535545749905727 -0.3826803373711342
vn 0.1464465138081851 -0.35355315979797924 0.9238796359863625
vn -0.1464465138081851 0.35355315979797924 -0.9238796359863625
vn 0.9238795325112867 0.3826834323650897 0
usemtl m_fb4282bc-10f8-24fc-5e12-044afee62972
f 30/65/19 26/66/19 27/67/19 31/68/19
f 29/69/20 28/70/20 32/71/20 33/72/20
f 28/73/21 26/74/21 30/75/21 32/76/21
f 31/77/22 27/78/22 29/79/22 33/80/22
f 27/81/23 26/82/23 28/83/23 29/84/23
o 2
v 0.725655075940547 2.4537235293775033 0.850624375
v 0.7087428495015178 2.4706357558165326 0.792881875
v 0.9706357558165324 2.208742849501518 0.707118125
v 0.9537235293775032 2.225655075940547 0.649375625
v -0.11403422671847803 1.614034226718478 0.850624375
v -0.1309464531575073 1.6309464531575073 0.792881875
v 0.1309464531575073 1.3690535468424927 0.707118125
v 0.11403422671847803 1.385965773281522 0.649375625
vt 0.421875 0.4140625
vt 0.5703125 0.4140625
vt 0.5703125 0.421875
vt 0.421875 0.421875
vt 0.5703125 0.3828125
vt 0.5703125 0.390625
vt 0.421875 0.390625
vt 0.421875 0.3828125
vt 0.5703125 0.3828125
vt 0.5703125 0.421875
vt 0.421875 0.421875
vt 0.421875 0.3828125
vt 0.421875 0.421875
vt 0.5703125 0.421875
vt 0.5703125 0.3828125
vt 0.421875 0.3828125
vt 0.5703125 0.421875
vt 0.5625 0.421875
vt 0.5625 0.3828125
vt 0.5703125 0.3828125
vn -0.6532823889366356 0.6532823889366355 0.3826803373711342
vn 0.6532823889366356 -0.6532823889366355 -0.3826803373711342
vn 0.27059787343002756 -0.2705978734300275 0.9238796359863625
vn -0.27059787343002756 0.2705978734300275 -0.9238796359863625
vn 0.7071067811865475 0.7071067811865476 0
usemtl m_fb4282bc-10f8-24fc-5e12-044afee62972
f 38/85/24 34/86/24 35/87/24 39/88/24
f 37/89/25 36/90/25 40/91/25 41/92/25
f 36/93/26 34/94/26 38/95/26 40/96/26
f 39/97/27 35/98/27 37/99/27 41/100/27
f 35/101/28 34/102/28 36/103/28 37/104/28
o 3
v 0.30544367857486465 2.6588218236403804 0.850624375
v 0.2833467898560259 2.6679746546339724 0.792881875
v 0.6255263620110625 2.5262392350803333 0.707118125
v 0.6034294732922237 2.5353920660739253 0.649375625
v -0.14899289735867954 1.5617148787832276 0.850624375
v -0.17108978607751826 1.5708677097768196 0.792881875
v 0.17108978607751826 1.4291322902231804 0.707118125
v 0.14899289735867954 1.4382851212167724 0.649375625
vt 0.421875 0.4140625
vt 0.5703125 0.4140625
vt 0.5703125 0.421875
vt 0.421875 0.421875
vt 0.5703125 0.3828125
vt 0.5703125 0.390625
vt 0.421875 0.390625
vt 0.421875 0.3828125
vt 0.5703125 0.3828125
vt 0.5703125 0.421875
vt 0.421875 0.421875
vt 0.421875 0.3828125
vt 0.421875 0.421875
vt 0.5703125 0.421875
vt 0.5703125 0.3828125
vt 0.421875 0.3828125
vt 0.5703125 0.421875
vt 0.5625 0.421875
vt 0.5625 0.3828125
vt 0.5703125 0.3828125
vn -0.8535545749905726 0.35355388118669834 0.3826803373711341
vn 0.8535545749905726 -0.35355388118669834 -0.3826803373711341
vn 0.3535531597979793 -0.14644651380818519 0.9238796359863625
vn -0.3535531597979793 0.14644651380818519 -0.9238796359863625
vn 0.38268343236508984 0.9238795325112866 0
usemtl m_fb4282bc-10f8-24fc-5e12-044afee62972
f 46/105/29 42/106/29 43/107/29 47/108/29
f 45/109/30 44/110/30 48/111/30 49/112/30
f 44/113/31 42/114/31 46/115/31 48/116/31
f 47/117/32 43/118/32 45/119/32 49/120/32
f 43/121/33 42/122/33 44/123/33 45/124/33
o 4
v -0.16126874999999974 2.6875 0.850624375
v -0.18518624999999972 2.6875 0.792881875
v 0.18518625000000027 2.6875 0.707118125
v 0.16126875000000024 2.6875 0.649375625
v -0.16126875 1.5 0.850624375
v -0.18518625 1.5 0.792881875
v 0.18518625 1.5 0.707118125
v 0.16126875 1.5 0.649375625
vt 0.421875 0.4140625
vt 0.5703125 0.4140625
vt 0.5703125 0.421875
vt 0.421875 0.421875
vt 0.5703125 0.3828125
vt 0.5703125 0.390625
vt 0.421875 0.390625
vt 0.421875 0.3828125
vt 0.5703125 0.3828125
vt 0.5703125 0.421875
vt 0.421875 0.421875
vt 0.421875 0.3828125
vt 0.421875 0.421875
vt 0.5703125 0.421875
vt 0.5703125 0.3828125
vt 0.421875 0.3828125
vt 0.5703125 0.421875
vt 0.5625 0.421875
vt 0.5625 0.3828125
vt 0.5703125 0.3828125
vn -0.9238808144936852 2.0514275045206647e-16 0.3826803373711342
vn 0.9238808144936852 -2.0514275045206647e-16 -0.3826803373711342
vn 0.38268318255406314 -8.497273608167058e-17 0.9238796359863625
vn -0.38268318255406314 8.497273608167058e-17 -0.9238796359863625
vn 2.220446049250313e-16 1 0
usemtl m_fb4282bc-10f8-24fc-5e12-044afee62972
f 54/125/34 50/126/34 51/127/34 55/128/34
f 53/129/35 52/130/35 56/131/35 57/132/35
f 52/133/36 50/134/36 54/135/36 56/136/36
f 55/137/37 51/138/37 53/139/37 57/140/37
f 51/141/38 50/142/38 52/143/38 53/144/38
o 7
v -1.1588218236403807 1.8054436785748647 0.850624375
v -1.1679746546339727 1.783346789856026 0.792881875
v -1.0262392350803335 2.1255263620110627 0.707118125
v -1.0353920660739255 2.103429473292224 0.649375625
v -0.06171487878322759 1.3510071026413204 0.850624375
v -0.07086770977681962 1.3289102139224818 0.792881875
v 0.07086770977681962 1.6710897860775182 0.707118125
v 0.06171487878322759 1.6489928973586796 0.649375625
vt 0.421875 0.4140625
vt 0.5703125 0.4140625
vt 0.5703125 0.421875
vt 0.421875 0.421875
vt 0.5703125 0.3828125
vt 0.5703125 0.390625
vt 0.421875 0.390625
vt 0.421875 0.3828125
vt 0.5703125 0.3828125
vt 0.5703125 0.421875
vt 0.421875 0.421875
vt 0.421875 0.3828125
vt 0.421875 0.421875
vt 0.5703125 0.421875
vt 0.5703125 0.3828125
vt 0.421875 0.3828125
vt 0.5703125 0.421875
vt 0.5625 0.421875
vt 0.5625 0.3828125
vt 0.5703125 0.3828125
vn -0.3535538811866983 -0.8535545749905725 0.3826803373711341
vn 0.3535538811866983 0.8535545749905725 -0.3826803373711341
vn 0.14644651380818516 0.35355315979797924 0.9238796359863625
vn -0.14644651380818516 -0.35355315979797924 -0.9238796359863625
vn -0.9238795325112867 0.3826834323650899 0
usemtl m_fb4282bc-10f8-24fc-5e12-044afee62972
f 62/145/39 58/146/39 59/147/39 63/148/39
f 61/149/40 60/150/40 64/151/40 65/152/40
f 60/153/41 58/154/41 62/155/41 64/156/41
f 63/157/42 59/158/42 61/159/42 65/160/42
f 59/161/43 58/162/43 60/163/43 61/164/43
o 6
v -0.9537235293775032 2.2256550759405473 0.850624375
v -0.9706357558165324 2.208742849501518 0.792881875
v -0.7087428495015178 2.4706357558165326 0.707118125
v -0.725655075940547 2.4537235293775037 0.649375625
v -0.11403422671847806 1.385965773281522 0.850624375
v -0.1309464531575073 1.3690535468424927 0.792881875
v 0.1309464531575073 1.6309464531575073 0.707118125
v 0.11403422671847806 1.614034226718478 0.649375625
vt 0.421875 0.4140625
vt 0.5703125 0.4140625
vt 0.5703125 0.421875
vt 0.421875 0.421875
vt 0.5703125 0.3828125
vt 0.5703125 0.390625
vt 0.421875 0.390625
vt 0.421875 0.3828125
vt 0.5703125 0.3828125
vt 0.5703125 0.421875
vt 0.421875 0.421875
vt 0.421875 0.3828125
vt 0.421875 0.421875
vt 0.5703125 0.421875
vt 0.5703125 0.3828125
vt 0.421875 0.3828125
vt 0.5703125 0.421875
vt 0.5625 0.421875
vt 0.5625 0.3828125
vt 0.5703125 0.3828125
vn -0.6532823889366356 -0.6532823889366354 0.3826803373711341
vn 0.6532823889366356 0.6532823889366354 -0.3826803373711341
vn 0.2705978734300276 0.2705978734300275 0.9238796359863625
vn -0.2705978734300276 -0.2705978734300275 -0.9238796359863625
vn -0.7071067811865475 0.7071067811865477 0
usemtl m_fb4282bc-10f8-24fc-5e12-044afee62972
f 70/165/44 66/166/44 67/167/44 71/168/44
f 69/169/45 68/170/45 72/171/45 73/172/45
f 68/173/46 66/174/46 70/175/46 72/176/46
f 71/177/47 67/178/47 69/179/47 73/180/47
f 67/181/48 66/182/48 68/183/48 69/184/48
o 5
v -0.6034294732922237 2.5353920660739258 0.850624375
v -0.6255263620110625 2.5262392350803333 0.792881875
v -0.2833467898560259 2.667974654633973 0.707118125
v -0.30544367857486465 2.6588218236403804 0.649375625
v -0.14899289735867957 1.4382851212167724 0.850624375
v -0.1710897860775183 1.4291322902231804 0.792881875
v 0.1710897860775183 1.5708677097768196 0.707118125
v 0.14899289735867957 1.5617148787832276 0.649375625
vt 0.421875 0.4140625
vt 0.5703125 0.4140625
vt 0.5703125 0.421875
vt 0.421875 0.421875
vt 0.5703125 0.3828125
vt 0.5703125 0.390625
vt 0.421875 0.390625
vt 0.421875 0.3828125
vt 0.5703125 0.3828125
vt 0.5703125 0.421875
vt 0.421875 0.421875
vt 0.421875 0.3828125
vt 0.421875 0.421875
vt 0.5703125 0.421875
vt 0.5703125 0.3828125
vt 0.421875 0.3828125
vt 0.5703125 0.421875
vt 0.5625 0.421875
vt 0.5625 0.3828125
vt 0.5703125 0.3828125
vn -0.8535545749905726 -0.35355388118669817 0.3826803373711342
vn 0.8535545749905726 0.35355388118669817 -0.3826803373711342
vn 0.3535531597979792 0.1464465138081851 0.9238796359863625
vn -0.3535531597979792 -0.1464465138081851 -0.9238796359863625
vn -0.38268343236508984 0.9238795325112868 0
usemtl m_fb4282bc-10f8-24fc-5e12-044afee62972
f 78/185/49 74/186/49 75/187/49 79/188/49
f 77/189/50 76/190/50 80/191/50 81/192/50
f 76/193/51 74/194/51 78/195/51 80/196/51
f 79/197/52 75/198/52 77/199/52 81/200/52
f 75/201/53 74/202/53 76/203/53 77/204/53
o 8
v -1.1875 1.3387312500000002 0.850624375
v -1.1875 1.3148137500000001 0.792881875
v -1.1875 1.68518625 0.707118125
v -1.1875 1.66126875 0.649375625
v -1.974972584899947e-17 1.33873125 0.850624375
v -2.2678774830860153e-17 1.31481375 0.792881875
v 2.2678774830860153e-17 1.68518625 0.707118125
v 1.974972584899947e-17 1.66126875 0.649375625
vt 0.421875 0.4140625
vt 0.5703125 0.4140625
vt 0.5703125 0.421875
vt 0.421875 0.421875
vt 0.5703125 0.3828125
vt 0.5703125 0.390625
vt 0.421875 0.390625
vt 0.421875 0.3828125
vt 0.5703125 0.3828125
vt 0.5703125 0.421875
vt 0.421875 0.421875
vt 0.421875 0.3828125
vt 0.421875 0.421875
vt 0.5703125 0.421875
vt 0.5703125 0.3828125
vt 0.421875 0.3828125
vt 0.5703125 0.421875
vt 0.5625 0.421875
vt 0.5625 0.3828125
vt 0.5703125 0.3828125
vn -1.131427682263341e-16 -0.9238808144936852 0.3826803373711342
vn 1.131427682263341e-16 0.9238808144936852 -0.3826803373711342
vn 4.686517346023557e-17 0.38268318255406314 0.9238796359863625
vn -4.686517346023557e-17 -0.38268318255406314 -0.9238796359863625
vn -1 1.2246467991473532e-16 0
usemtl m_fb4282bc-10f8-24fc-5e12-044afee62972
f 86/205/54 82/206/54 83/207/54 87/208/54
f 85/209/55 84/210/55 88/211/55 89/212/55
f 84/213/56 82/214/56 86/215/56 88/216/56
f 87/217/57 83/218/57 85/219/57 89/220/57
f 83/221/58 82/222/58 84/223/58 85/224/58
o 13
v 0.6034294732922237 0.4646079339260747 0.850624375
v 0.6255263620110625 0.4737607649196667 0.792881875
v 0.2833467898560259 0.33202534536602757 0.707118125
v 0.30544367857486465 0.34117817635961956 0.649375625
v 0.14899289735867954 1.5617148787832276 0.850624375
v 0.17108978607751826 1.5708677097768196 0.792881875
v -0.17108978607751826 1.4291322902231804 0.707118125
v -0.14899289735867954 1.4382851212167724 0.649375625
vt 0.421875 0.4140625
vt 0.5703125 0.4140625
vt 0.5703125 0.421875
vt 0.421875 0.421875
vt 0.5703125 0.3828125
vt 0.5703125 0.390625
vt 0.421875 0.390625
vt 0.421875 0.3828125
vt 0.5703125 0.3828125
vt 0.5703125 0.421875
vt 0.421875 0.421875
vt 0.421875 0.3828125
vt 0.421875 0.421875
vt 0.5703125 0.421875
vt 0.5703125 0.3828125
vt 0.421875 0.3828125
vt 0.5703125 0.421875
vt 0.5625 0.421875
vt 0.5625 0.3828125
vt 0.5703125 0.3828125
vn 0.8535545749905726 0.35355388118669834 0.3826803373711341
vn -0.8535545749905726 -0.35355388118669834 -0.3826803373711341
vn -0.3535531597979793 -0.14644651380818519 0.9238796359863625
vn 0.3535531597979793 0.14644651380818519 -0.9238796359863625
vn 0.38268343236508984 -0.9238795325112866 0
usemtl m_fb4282bc-10f8-24fc-5e12-044afee62972
f 94/225/59 90/226/59 91/227/59 95/228/59
f 93/229/60 92/230/60 96/231/60 97/232/60
f 92/233/61 90/234/61 94/235/61 96/236/61
f 95/237/62 91/238/62 93/239/62 97/240/62
f 91/241/63 90/242/63 92/243/63 93/244/63
o 14
v 0.9537235293775032 0.7743449240594529 0.850624375
v 0.9706357558165324 0.7912571504984821 0.792881875
v 0.7087428495015178 0.5293642441834675 0.707118125
v 0.725655075940547 0.5462764706224967 0.649375625
v 0.11403422671847803 1.614034226718478 0.850624375
v 0.1309464531575073 1.6309464531575073 0.792881875
v -0.1309464531575073 1.3690535468424927 0.707118125
v -0.11403422671847803 1.385965773281522 0.649375625
vt 0.421875 0.4140625
vt 0.5703125 0.4140625
vt 0.5703125 0.421875
vt 0.421875 0.421875
vt 0.5703125 0.3828125
vt 0.5703125 0.390625
vt 0.421875 0.390625
vt 0.421875 0.3828125
vt 0.5703125 0.3828125
vt 0.5703125 0.421875
vt 0.421875 0.421875
vt 0.421875 0.3828125
vt 0.421875 0.421875
vt 0.5703125 0.421875
vt 0.5703125 0.3828125
vt 0.421875 0.3828125
vt 0.5703125 0.421875
vt 0.5625 0.421875
vt 0.5625 0.3828125
vt 0.5703125 0.3828125
vn 0.6532823889366356 0.6532823889366355 0.3826803373711342
vn -0.6532823889366356 -0.6532823889366355 -0.3826803373711342
vn -0.27059787343002756 -0.2705978734300275 0.9238796359863625
vn 0.27059787343002756 0.2705978734300275 -0.9238796359863625
vn 0.7071067811865475 -0.7071067811865476 0
usemtl m_fb4282bc-10f8-24fc-5e12-044afee62972
f 102/245/64 98/246/64 99/247/64 103/248/64
f 101/249/65 100/250/65 104/251/65 105/252/65
f 100/253/66 98/254/66 102/255/66 104/256/66
f 103/257/67 99/258/67 101/259/67 105/260/67
f 99/261/68 98/262/68 100/263/68 101/264/68
o 15
v 1.1588218236403807 1.1945563214251356 0.850624375
v 1.1679746546339727 1.2166532101439742 0.792881875
v 1.0262392350803335 0.8744736379889377 0.707118125
v 1.0353920660739255 0.8965705267077764 0.649375625
v 0.06171487878322756 1.6489928973586796 0.850624375
v 0.0708677097768196 1.6710897860775182 0.792881875
v -0.0708677097768196 1.3289102139224818 0.707118125
v -0.06171487878322756 1.3510071026413204 0.649375625
vt 0.421875 0.4140625
vt 0.5703125 0.4140625
vt 0.5703125 0.421875
vt 0.421875 0.421875
vt 0.5703125 0.3828125
vt 0.5703125 0.390625
vt 0.421875 0.390625
vt 0.421875 0.3828125
vt 0.5703125 0.3828125
vt 0.5703125 0.421875
vt 0.421875 0.421875
vt 0.421875 0.3828125
vt 0.421875 0.421875
vt 0.5703125 0.421875
vt 0.5703125 0.3828125
vt 0.421875 0.3828125
vt 0.5703125 0.421875
vt 0.5625 0.421875
vt 0.5625 0.3828125
vt 0.5703125 0.3828125
vn 0.35355388118669817 0.8535545749905727 0.3826803373711342
vn -0.35355388118669817 -0.8535545749905727 -0.3826803373711342
vn -0.1464465138081851 -0.35355315979797924 0.9238796359863625
vn 0.1464465138081851 0.35355315979797924 -0.9238796359863625
vn 0.9238795325112867 -0.3826834323650897 0
usemtl m_fb4282bc-10f8-24fc-5e12-044afee62972
f 110/265/69 106/266/69 107/267/69 111/268/69
f 109/269/70 108/270/70 112/271/70 113/272/70
f 108/273/71 106/274/71 110/275/71 112/276/71
f 111/277/72 107/278/72 109/279/72 113/280/72
f 107/281/73 106/282/73 108/283/73 109/284/73
o 12
v 0.16126875000000024 0.3125 0.850624375
v 0.18518625000000027 0.3125 0.792881875
v -0.18518624999999972 0.3125 0.707118125
v -0.16126874999999974 0.3125 0.649375625
v 0.16126875 1.5 0.850624375
v 0.18518625 1.5 0.792881875
v -0.18518625 1.5 0.707118125
v -0.16126875 1.5 0.649375625
vt 0.421875 0.4140625
vt 0.5703125 0.4140625
vt 0.5703125 0.421875
vt 0.421875 0.421875
vt 0.5703125 0.3828125
vt 0.5703125 0.390625
vt 0.421875 0.390625
vt 0.421875 0.3828125
vt 0.5703125 0.3828125
vt 0.5703125 0.421875
vt 0.421875 0.421875
vt 0.421875 0.3828125
vt 0.421875 0.421875
vt 0.5703125 0.421875
vt 0.5703125 0.3828125
vt 0.421875 0.3828125
vt 0.5703125 0.421875
vt 0.5625 0.421875
vt 0.5625 0.3828125
vt 0.5703125 0.3828125
vn 0.9238808144936852 2.0514275045206647e-16 0.3826803373711342
vn -0.9238808144936852 -2.0514275045206647e-16 -0.3826803373711342
vn -0.38268318255406314 -8.497273608167058e-17 0.9238796359863625
vn 0.38268318255406314 8.497273608167058e-17 -0.9238796359863625
vn 2.220446049250313e-16 -1 0
usemtl m_fb4282bc-10f8-24fc-5e12-044afee62972
f 118/285/74 114/286/74 115/287/74 119/288/74
f 117/289/75 116/290/75 120/291/75 121/292/75
f 116/293/76 114/294/76 118/295/76 120/296/76
f 119/297/77 115/298/77 117/299/77 121/300/77
f 115/301/78 114/302/78 116/303/78 117/304/78
o 11
v -0.30544367857486465 0.34117817635961933 0.850624375
v -0.2833467898560259 0.33202534536602735 0.792881875
v -0.6255263620110625 0.47376076491966645 0.707118125
v -0.6034294732922237 0.46460793392607447 0.649375625
v 0.14899289735867957 1.4382851212167724 0.850624375
v 0.1710897860775183 1.4291322902231804 0.792881875
v -0.1710897860775183 1.5708677097768196 0.707118125
v -0.14899289735867957 1.5617148787832276 0.649375625
vt 0.421875 0.4140625
vt 0.5703125 0.4140625
vt 0.5703125 0.421875
vt 0.421875 0.421875
vt 0.5703125 0.3828125
vt 0.5703125 0.390625
vt 0.421875 0.390625
vt 0.421875 0.3828125
vt 0.5703125 0.3828125
vt 0.5703125 0.421875
vt 0.421875 0.421875
vt 0.421875 0.3828125
vt 0.421875 0.421875
vt 0.5703125 0.421875
vt 0.5703125 0.3828125
vt 0.421875 0.3828125
vt 0.5703125 0.421875
vt 0.5625 0.421875
vt 0.5625 0.3828125
vt 0.5703125 0.3828125
vn 0.8535545749905726 -0.35355388118669817 0.3826803373711342
vn -0.8535545749905726 0.35355388118669817 -0.3826803373711342
vn -0.3535531597979792 0.1464465138081851 0.9238796359863625
vn 0.3535531597979792 -0.1464465138081851 -0.9238796359863625
vn -0.38268343236508984 -0.9238795325112868 0
usemtl m_fb4282bc-10f8-24fc-5e12-044afee62972
f 126/305/79 122/306/79 123/307/79 127/308/79
f 125/309/80 124/310/80 128/311/80 129/312/80
f 124/313/81 122/314/81 126/315/81 128/316/81
f 127/317/82 123/318/82 125/319/82 129/320/82
f 123/321/83 122/322/83 124/323/83 125/324/83
o 10
v -0.725655075940547 0.5462764706224965 0.850624375
v -0.7087428495015178 0.5293642441834673 0.792881875
v -0.9706357558165324 0.7912571504984819 0.707118125
v -0.9537235293775032 0.7743449240594527 0.649375625
v 0.11403422671847806 1.385965773281522 0.850624375
v 0.1309464531575073 1.3690535468424927 0.792881875
v -0.1309464531575073 1.6309464531575073 0.707118125
v -0.11403422671847806 1.614034226718478 0.649375625
vt 0.421875 0.4140625
vt 0.5703125 0.4140625
vt 0.5703125 0.421875
vt 0.421875 0.421875
vt 0.5703125 0.3828125
vt 0.5703125 0.390625
vt 0.421875 0.390625
vt 0.421875 0.3828125
vt 0.5703125 0.3828125
vt 0.5703125 0.421875
vt 0.421875 0.421875
vt 0.421875 0.3828125
vt 0.421875 0.421875
vt 0.5703125 0.421875
vt 0.5703125 0.3828125
vt 0.421875 0.3828125
vt 0.5703125 0.421875
vt 0.5625 0.421875
vt 0.5625 0.3828125
vt 0.5703125 0.3828125
vn 0.6532823889366356 -0.6532823889366354 0.3826803373711341
vn -0.6532823889366356 0.6532823889366354 -0.3826803373711341
vn -0.2705978734300276 0.2705978734300275 0.9238796359863625
vn 0.2705978734300276 -0.2705978734300275 -0.9238796359863625
vn -0.7071067811865475 -0.7071067811865477 0
usemtl m_fb4282bc-10f8-24fc-5e12-044afee62972
f 134/325/84 130/326/84 131/327/84 135/328/84
f 133/329/85 132/330/85 136/331/85 137/332/85
f 132/333/86 130/334/86 134/335/86 136/336/86
f 135/337/87 131/338/87 133/339/87 137/340/87
f 131/341/88 130/342/88 132/343/88 133/344/88
o 9
v -1.0353920660739255 0.8965705267077761 0.850624375
v -1.0262392350803335 0.8744736379889375 0.792881875
v -1.1679746546339727 1.216653210143974 0.707118125
v -1.1588218236403807 1.1945563214251353 0.649375625
v 0.06171487878322759 1.3510071026413204 0.850624375
v 0.07086770977681962 1.3289102139224818 0.792881875
v -0.07086770977681962 1.6710897860775182 0.707118125
v -0.06171487878322759 1.6489928973586796 0.649375625
vt 0.421875 0.4140625
vt 0.5703125 0.4140625
vt 0.5703125 0.421875
vt 0.421875 0.421875
vt 0.5703125 0.3828125
vt 0.5703125 0.390625
vt 0.421875 0.390625
vt 0.421875 0.3828125
vt 0.5703125 0.3828125
vt 0.5703125 0.421875
vt 0.421875 0.421875
vt 0.421875 0.3828125
vt 0.421875 0.421875
vt 0.5703125 0.421875
vt 0.5703125 0.3828125
vt 0.421875 0.3828125
vt 0.5703125 0.421875
vt 0.5625 0.421875
vt 0.5625 0.3828125
vt 0.5703125 0.3828125
vn 0.3535538811866983 -0.8535545749905725 0.3826803373711341
vn -0.3535538811866983 0.8535545749905725 -0.3826803373711341
vn -0.14644651380818516 0.35355315979797924 0.9238796359863625
vn 0.14644651380818516 -0.35355315979797924 -0.9238796359863625
vn -0.9238795325112867 -0.3826834323650899 0
usemtl m_fb4282bc-10f8-24fc-5e12-044afee62972
f 142/345/89 138/346/89 139/347/89 143/348/89
f 141/349/90 140/350/90 144/351/90 145/352/90
f 140/353/91 138/354/91 142/355/91 144/356/91
f 143/357/92 139/358/92 141/359/92 145/360/92
f 139/361/93 138/362/93 140/363/93 141/364/93
o jet_casing
v 0.75 1.8106599999999995 -2.75
v 0.75 1.8106599999999997 -2
v 0.75 1.1893399999999998 -2
v 0.75 1.1893399999999996 -2.75
v 0.31066 0.7499999999999998 -1.9999999999999998
v -0.31066 0.7499999999999998 -1.9999999999999998
v -0.75 1.1893399999999998 -2
v -0.75 1.8106599999999997 -2
v -0.75 1.8106599999999995 -2.75
v -0.31066 2.2499999999999996 -2.75
v -0.31066 2.25 -2
v 0.31066 2.2499999999999996 -2.75
v 0.31066 2.25 -2
v 0.31066 0.7499999999999997 -2.75
v -0.31066 0.7499999999999997 -2.75
v -0.75 1.1893399999999996 -2.75
v -0.284771875 2.1874999999999996 -2.75
v 0.284771875 2.1874999999999996 -2.75
v 0.6875 1.7847718749999997 -2.75
v 0.6875 1.2152281249999997 -2.75
v 0.284771875 0.8124999999999997 -2.75
v -0.284771875 0.8124999999999997 -2.75
v -0.6875 1.2152281249999997 -2.75
v -0.6875 1.7847718749999997 -2.75
v -0.284771875 2.1875 -2
v 0.284771875 2.1875 -2
v 0.6875 1.7847718749999997 -2
v 0.6875 1.2152281249999999 -2
v 0.284771875 0.8124999999999998 -2
v -0.284771875 0.8124999999999998 -2
v -0.6875 1.2152281249999999 -2
v -0.6875 1.7847718749999997 -2
v -0.258883125 0.8749999999999998 -1.875
v -0.258883125 0.8749999999999999 -1.75
v -0.625 1.241116875 -1.875
v -0.625 1.241116875 -1.75
v 0.258883125 0.8749999999999998 -1.875
v 0.258883125 0.8749999999999999 -1.75
v 0.625 1.241116875 -1.875
v 0.625 1.241116875 -1.75
v 0.625 1.7588831249999999 -1.875
v 0.625 1.7588831249999999 -1.75
v 0.258883125 2.125 -1.875
v 0.258883125 2.125 -1.75
v -0.258883125 2.125 -1.875
v -0.258883125 2.125 -1.75
v -0.625 1.7588831249999999 -1.875
v -0.625 1.7588831249999999 -1.75
v -0.284771875 2.1875 -1.75
v 0.284771875 2.1875 -1.75
v 0.6875 1.784771875 -1.75
v 0.6875 1.2152281249999999 -1.75
v 0.284771875 0.8124999999999999 -1.75
v -0.284771875 0.8124999999999999 -1.75
v -0.6875 1.2152281249999999 -1.75
v -0.6875 1.784771875 -1.75
v -0.6875 1.7847718749999995 -3.5625
v -0.284771875 2.1874999999999996 -3.5625
v 0.284771875 2.1874999999999996 -3.5625
v 0.6875 1.7847718749999995 -3.5625
v 0.6875 1.2152281249999994 -3.5625
v 0.284771875 0.8124999999999994 -3.5625
v -0.284771875 0.8124999999999994 -3.5625
v -0.6875 1.2152281249999994 -3.5625
v 0.207106875 1.9999999999999996 -3.5625
v -0.207106875 1.9999999999999996 -3.5625
v -0.5 1.7071068749999994 -3.5625
v -0.207106875 0.9999999999999994 -3.5625
v -0.5 1.2928931249999995 -3.5625
v 0.207106875 0.9999999999999994 -3.5625
v 0.5 1.2928931249999995 -3.5625
v 0.5 1.7071068749999994 -3.5625
v 0.25 1.7499999999999996 -3.1875
v 0.25 1.2499999999999996 -3.1875
v 0.25 1.2499999999999993 -4
v 0.25 1.7499999999999993 -4
v -0.25 1.7499999999999996 -3.1875
v -0.25 1.7499999999999993 -4
v -0.25 1.2499999999999996 -3.1875
v -0.25 1.2499999999999993 -4
v -0.207106875 0.9999999999999996 -3.1875
v 0.207106875 0.9999999999999996 -3.1875
v -0.5 1.7071068749999996 -3.1875
v -0.5 1.2928931249999995 -3.1875
v 0.207106875 1.9999999999999996 -3.1875
v -0.207106875 1.9999999999999996 -3.1875
v 0.5 1.2928931249999995 -3.1875
v 0.5 1.7071068749999996 -3.1875
v 0.1875 1.6874999999999993 -4
v 0.1875 1.3124999999999993 -4
v 0.1875 1.3124999999999991 -4.5
v 0.1875 1.6874999999999991 -4.5
v -0.1875 1.6874999999999993 -4
v -0.1875 1.6874999999999991 -4.5
v -0.1875 1.3124999999999993 -4
v -0.1875 1.3124999999999991 -4.5
vt 0.625230078125 0.617187421875
vt 0.702894921875 0.617187421875
vt 0.702894921875 0.710937421875
vt 0.625230078125 0.710937421875
vt 0.625230078125 0.617187421875
vt 0.702894921875 0.617187421875
vt 0.702894921875 0.710937421875
vt 0.625230078125 0.710937421875
vt 0.625230078125 0.617187421875
vt 0.702894921875 0.617187421875
vt 0.702894921875 0.710937421875
vt 0.625230078125 0.710937421875
vt 0.625230078125 0.617187421875
vt 0.702894921875 0.617187421875
vt 0.702894921875 0.710937421875
vt 0.625230078125 0.710937421875
vt 0.625230078125 0.617187421875
vt 0.702894921875 0.617187421875
vt 0.702894921875 0.710937421875
vt 0.625230078125 0.710937421875
vt 0.625230078125 0.617187421875
vt 0.702894921875 0.617187421875
vt 0.702894921875 0.710937421875
vt 0.625230078125 0.710937421875
vt 0.625230078125 0.617187421875
vt 0.702894921875 0.617187421875
vt 0.702894921875 0.710937421875
vt 0.625230078125 0.710937421875
vt 0.625230078125 0.617187421875
vt 0.702894921875 0.617187421875
vt 0.702894921875 0.710937421875
vt 0.625230078125 0.710937421875
vt 0.628465703125 0.617187421875
vt 0.699658671875 0.617187421875
vt 0.702894765625 0.624999921875
vt 0.6252296875 0.624999921875
vt 0.628465703125 0.617187421875
vt 0.699658671875 0.617187421875
vt 0.702894765625 0.624999921875
vt 0.6252296875 0.624999921875
vt 0.628465703125 0.617187421875
vt 0.699658671875 0.617187421875
vt 0.702894765625 0.624999921875
vt 0.6252296875 0.624999921875
vt 0.628465703125 0.617187421875
vt 0.699658671875 0.617187421875
vt 0.702894765625 0.624999921875
vt 0.6252296875 0.624999921875
vt 0.628465703125 0.617187421875
vt 0.699658671875 0.617187421875
vt 0.702894765625 0.624999921875
vt 0.6252296875 0.624999921875
vt 0.628465703125 0.617187421875
vt 0.699658671875 0.617187421875
vt 0.702894765625 0.624999921875
vt 0.6252296875 0.624999921875
vt 0.628465703125 0.617187421875
vt 0.699658671875 0.617187421875
vt 0.702894765625 0.624999921875
vt 0.6252296875 0.624999921875
vt 0.628465703125 0.617187421875
vt 0.699658671875 0.617187421875
vt 0.702894765625 0.624999921875
vt 0.6252296875 0.624999921875
vt 0.6252296875 0.703125
vt 0.628465703125 0.7109375
vt 0.699658671875 0.7109375
vt 0.7028946875 0.703125
vt 0.6252296875 0.703125
vt 0.62846578125 0.710937421875
vt 0.699658671875 0.710937421875
vt 0.702894765625 0.703125
vt 0.6252296875 0.703125
vt 0.628465703125 0.7109375
vt 0.699658671875 0.7109375
vt 0.7028946875 0.703125
vt 0.6252296875 0.703125
vt 0.62846578125 0.710937421875
vt 0.699658671875 0.710937421875
vt 0.702894765625 0.703125
vt 0.6252296875 0.703125
vt 0.628465703125 0.7109375
vt 0.699658671875 0.7109375
vt 0.7028946875 0.703125
vt 0.6252296875 0.703125
vt 0.62846578125 0.710937421875
vt 0.699658671875 0.710937421875
vt 0.702894765625 0.703125
vt 0.6252296875 0.703125
vt 0.628465703125 0.7109375
vt 0.699658671875 0.7109375
vt 0.7028946875 0.703125
vt 0.6252296875 0.703125
vt 0.62846578125 0.710937421875
vt 0.699658671875 0.710937421875
vt 0.702894765625 0.703125
vt 0.631705859375 0.757812421875
vt 0.631705859375 0.742187421875
vt 0.696426953125 0.742187421875
vt 0.696426953125 0.757812421875
vt 0.631705859375 0.757812421875
vt 0.631705859375 0.742187421875
vt 0.696426953125 0.742187421875
vt 0.696426953125 0.757812421875
vt 0.631705859375 0.757812421875
vt 0.631705859375 0.742187421875
vt 0.696426953125 0.742187421875
vt 0.696426953125 0.757812421875
vt 0.631705859375 0.757812421875
vt 0.631705859375 0.742187421875
vt 0.696426953125 0.742187421875
vt 0.696426953125 0.757812421875
vt 0.631705859375 0.757812421875
vt 0.631705859375 0.742187421875
vt 0.696426953125 0.742187421875
vt 0.696426953125 0.757812421875
vt 0.631705859375 0.757812421875
vt 0.631705859375 0.742187421875
vt 0.696426953125 0.742187421875
vt 0.696426953125 0.757812421875
vt 0.631705859375 0.757812421875
vt 0.631705859375 0.742187421875
vt 0.696426953125 0.742187421875
vt 0.696426953125 0.757812421875
vt 0.631705859375 0.757812421875
vt 0.631705859375 0.742187421875
vt 0.696426953125 0.742187421875
vt 0.696426953125 0.757812421875
vt 0.699658984375 0.742187421875
vt 0.699658984375 0.515624921875
vt 0.628466015625 0.515624921875
vt 0.628466015625 0.742187421875
vt 0.699658984375 0.742187421875
vt 0.699658984375 0.515624921875
vt 0.628466015625 0.515624921875
vt 0.628466015625 0.742187421875
vt 0.628466015625 0.742187421875
vt 0.699658984375 0.742187421875
vt 0.699658984375 0.515624921875
vt 0.628466015625 0.515624921875
vt 0.699658984375 0.742187421875
vt 0.699658984375 0.515624921875
vt 0.628466015625 0.515624921875
vt 0.628466015625 0.742187421875
vt 0.699658984375 0.742187421875
vt 0.699658984375 0.515624921875
vt 0.628466015625 0.515624921875
vt 0.628466015625 0.742187421875
vt 0.699658984375 0.742187421875
vt 0.699658984375 0.515624921875
vt 0.628466015625 0.515624921875
vt 0.628466015625 0.742187421875
vt 0.699658984375 0.742187421875
vt 0.699658984375 0.515624921875
vt 0.628466015625 0.515624921875
vt 0.628466015625 0.742187421875
vt 0.63817375 0.49218734374999995
vt 0.68995046875 0.49218734374999995
vt 0.69965859375 0.515624921875
vt 0.628465625 0.515624921875
vt 0.63817375 0.49218734374999995
vt 0.68995046875 0.49218734374999995
vt 0.69965859375 0.515624921875
vt 0.628465625 0.515624921875
vt 0.63817375 0.49218734374999995
vt 0.68995046875 0.49218734374999995
vt 0.69965859375 0.515624921875
vt 0.628465625 0.515624921875
vt 0.63817375 0.49218734374999995
vt 0.68995046875 0.49218734374999995
vt 0.69965859375 0.515624921875
vt 0.628465625 0.515624921875
vt 0.63817375 0.49218734374999995
vt 0.68995046875 0.49218734374999995
vt 0.69965859375 0.515624921875
vt 0.628465625 0.515624921875
vt 0.63817375 0.49218734374999995
vt 0.68995046875 0.49218734374999995
vt 0.69965859375 0.515624921875
vt 0.628465625 0.515624921875
vt 0.63817375 0.49218734374999995
vt 0.68995046875 0.49218734374999995
vt 0.69965859375 0.515624921875
vt 0.628465625 0.515624921875
vt 0.63817375 0.49218734374999995
vt 0.68995046875 0.49218734374999995
vt 0.69965859375 0.515624921875
vt 0.628465625 0.515624921875
vt 0.515625078125 0.546874921875
vt 0.515625078125 0.609374921875
vt 0.453125 0.609374921875
vt 0.453125 0.546874921875
vt 0.515625078125 0.546874921875
vt 0.515625078125 0.609374921875
vt 0.453125 0.609374921875
vt 0.453125 0.546874921875
vt 0.515625078125 0.546874921875
vt 0.515625078125 0.609374921875
vt 0.453125 0.609374921875
vt 0.453125 0.546874921875
vt 0.515625078125 0.546874921875
vt 0.515625078125 0.609374921875
vt 0.453125 0.609374921875
vt 0.453125 0.546874921875
vt 0.515625078125 0.48437484374999995
vt 0.515625078125 0.546874921875
vt 0.453125 0.546874921875
vt 0.453125 0.48437484374999995
vt 0.460267265625 0.609375
vt 0.4609375 0.6171875
vt 0.453125 0.6171875
vt 0.453795234375 0.609375
vt 0.4609375 0.616517265625
vt 0.453125 0.6171875
vt 0.453125 0.609375
vt 0.4609375 0.610045234375
vt 0.453795234375 0.6171875
vt 0.453125 0.609375
vt 0.4609375 0.609375
vt 0.460267265625 0.6171875
vt 0.453125 0.610045234375
vt 0.4609375 0.609375
vt 0.4609375 0.6171875
vt 0.453125 0.616517265625
vt 0.453125 0.6171875
vt 0.4609375 0.609375
vt 0.459793359375 0.616043359375
vt 0.453125 0.609375
vt 0.4609375 0.6171875
vt 0.454269140625 0.616043359375
vt 0.4609375 0.609375
vt 0.453125 0.6171875
vt 0.454269140625 0.610519140625
vt 0.4609375 0.6171875
vt 0.453125 0.609375
vt 0.459793359375 0.610519140625
vt 0.63817421875 0.44531234374999995
vt 0.63817421875 0.49218734374999995
vt 0.68995078125 0.49218734374999995
vt 0.68995078125 0.44531234374999995
vt 0.63817421875 0.44531234374999995
vt 0.63817421875 0.49218734374999995
vt 0.68995078125 0.49218734374999995
vt 0.68995078125 0.44531234374999995
vt 0.63817421875 0.44531234374999995
vt 0.63817421875 0.49218734374999995
vt 0.68995078125 0.49218734374999995
vt 0.68995078125 0.44531234374999995
vt 0.63817421875 0.44531234374999995
vt 0.63817421875 0.49218734374999995
vt 0.68995078125 0.49218734374999995
vt 0.68995078125 0.44531234374999995
vt 0.63817421875 0.44531234374999995
vt 0.63817421875 0.49218734374999995
vt 0.68995078125 0.49218734374999995
vt 0.68995078125 0.44531234374999995
vt 0.63817421875 0.44531234374999995
vt 0.63817421875 0.49218734374999995
vt 0.68995078125 0.49218734374999995
vt 0.68995078125 0.44531234374999995
vt 0.63817421875 0.44531234374999995
vt 0.63817421875 0.49218734374999995
vt 0.68995078125 0.49218734374999995
vt 0.68995078125 0.44531234374999995
vt 0.63817421875 0.44531234374999995
vt 0.63817421875 0.49218734374999995
vt 0.68995078125 0.49218734374999995
vt 0.68995078125 0.44531234374999995
vt 0.5625 0.54687484375
vt 0.515625 0.54687484375
vt 0.515625 0.48437484374999995
vt 0.5625 0.48437484374999995
vt 0.515625 0.54687484375
vt 0.5625 0.54687484375
vt 0.5625 0.48437484374999995
vt 0.515625 0.48437484374999995
vt 0.5625 0.54687484375
vt 0.515625 0.54687484375
vt 0.515625 0.48437484374999995
vt 0.5625 0.48437484374999995
vt 0.515625 0.54687484375
vt 0.5625 0.54687484375
vt 0.5625 0.48437484374999995
vt 0.515625 0.48437484374999995
vt 0.562500078125 0.54687484375
vt 0.562500078125 0.593749921875
vt 0.515625 0.593749921875
vt 0.515625 0.54687484375
vt 0.699658984375 0.742187421875
vt 0.699658984375 0.515624921875
vt 0.628466015625 0.515624921875
vt 0.628466015625 0.742187421875
vt 0.7000853125 0.742187109375
vt 0.62889234375 0.742187109375
vt 0.63212828125 0.734374609375
vt 0.69684859375 0.734374609375
vt 0.7000853125 0.742187578125
vt 0.628892890625 0.742187578125
vt 0.6321284375 0.734374609375
vt 0.6968496875 0.734374609375
vt 0.7000853125 0.742187421875
vt 0.628891796875 0.7421879687499999
vt 0.6321278125 0.734375390625
vt 0.6968490625 0.734374609375
vt 0.7000853125 0.742187109375
vt 0.628893125 0.742187109375
vt 0.6321290625 0.734374609375
vt 0.696849375 0.734374609375
vt 0.7000853125 0.742187109375
vt 0.62889234375 0.742187109375
vt 0.63212828125 0.734374609375
vt 0.69684859375 0.734374609375
vt 0.7000853125 0.742187109375
vt 0.628893125 0.742187109375
vt 0.6321290625 0.734374609375
vt 0.696849375 0.734374609375
vt 0.7000853125 0.74218734375
vt 0.6288928125 0.74218734375
vt 0.632128984375 0.734374609375
vt 0.696849375 0.7343752343750001
vt 0.7000853125 0.742187421875
vt 0.62889234375 0.7421879687499999
vt 0.632127890625 0.734375
vt 0.696849140625 0.734375
vn 1 0 0
vn -1 0 0
vn -0.7071067811865476 0.7071067811865476 -1.5700924586837752e-16
vn 0 1 -2.220446049250313e-16
vn 0.7071067811865476 0.7071067811865476 -1.5700924586837752e-16
vn 0.7071067811865476 -0.7071067811865476 1.5700924586837752e-16
vn 0 -1 2.220446049250313e-16
vn -0.7071067811865476 -0.7071067811865476 1.5700924586837752e-16
vn 0 -2.220446049250313e-16 -1
vn 0 -2.220446049250313e-16 -1
vn 0 -2.220446049250313e-16 -1
vn 0 -2.220446049250313e-16 -1
vn 0 -2.220446049250313e-16 -1
vn 0 -2.220446049250313e-16 -1
vn 0 -2.220446049250313e-16 -1
vn 0 -2.220446049250313e-16 -1
vn 0 2.220446049250313e-16 1
vn 0 2.220446049250313e-16 1
vn 0 2.220446049250313e-16 1
vn 0 2.220446049250313e-16 1
vn 0 2.220446049250313e-16 1
vn 0 2.220446049250313e-16 1
vn 0 2.220446049250313e-16 1
vn 0 2.220446049250313e-16 1
vn -1 0 0
vn 1 0 0
vn 0.7071067811865476 -0.7071067811865476 1.5700924586837752e-16
vn 0 -1 2.220446049250313e-16
vn -0.7071067811865476 -0.7071067811865476 1.5700924586837752e-16
vn -0.7071067811865476 0.7071067811865476 -1.5700924586837752e-16
vn 0 1 -2.220446049250313e-16
vn 0.7071067811865476 0.7071067811865476 -1.5700924586837752e-16
vn -1 0 0
vn -0.7071067811865476 0.7071067811865476 -1.5700924586837752e-16
vn 0 1 -2.220446049250313e-16
vn 0.7071067811865476 0.7071067811865476 -1.5700924586837752e-16
vn 1 0 0
vn 0.7071067811865476 -0.7071067811865476 1.5700924586837752e-16
vn 0 -1 2.220446049250313e-16
vn 0 -2.220446049250313e-16 -1
vn 0 -2.220446049250313e-16 -1
vn 0 -2.220446049250313e-16 -1
vn 0 -2.220446049250313e-16 -1
vn 0 -2.220446049250313e-16 -1
vn 0 -2.220446049250313e-16 -1
vn 0 -2.220446049250313e-16 -1
vn 0 -2.220446049250313e-16 -1
vn 1 0 0
vn 0 1 -2.220446049250313e-16
vn -1 0 0
vn 0 -1 2.220446049250313e-16
vn 0 -2.220446049250313e-16 -1
vn 0 -2.220446049250313e-16 -1
vn 0 -2.220446049250313e-16 -1
vn 0 -2.220446049250313e-16 -1
vn 0 -2.220446049250313e-16 -1
vn 0 -2.220446049250313e-16 -1
vn 0 -2.220446049250313e-16 -1
vn 0 -2.220446049250313e-16 -1
vn 0 -2.220446049250313e-16 -1
vn 1 0 0
vn 0.7071067811865476 -0.7071067811865476 1.5700924586837752e-16
vn 0 -1 2.220446049250313e-16
vn -0.7071067811865476 -0.7071067811865476 1.5700924586837752e-16
vn -1 0 0
vn -0.7071067811865476 0.7071067811865476 -1.5700924586837752e-16
vn 0 1 -2.220446049250313e-16
vn 0.7071067811865476 0.7071067811865476 -1.5700924586837752e-16
vn 1 0 0
vn 0 1 -2.220446049250313e-16
vn -1 0 0
vn 0 -1 2.220446049250313e-16
vn 0 -2.220446049250313e-16 -1
vn -0.7071067811865476 -0.7071067811865476 1.5700924586837752e-16
vn 0 2.220446049250313e-16 1
vn 0 2.220446049250313e-16 1
vn 0 2.220446049250313e-16 1
vn 0 2.220446049250313e-16 1
vn 0 2.220446049250313e-16 1
vn 0 2.220446049250313e-16 1
vn 0 2.220446049250313e-16 1
vn 0 2.220446049250313e-16 1
usemtl m_fb4282bc-10f8-24fc-5e12-044afee62972
f 149/365/94 146/366/94 147/367/94 148/368/94
f 154/369/95 161/370/95 152/371/95 153/372/95
f 155/373/96 154/374/96 153/375/96 156/376/96
f 157/377/97 155/378/97 156/379/97 158/380/97
f 146/381/98 157/382/98 158/383/98 147/384/98
f 159/385/99 149/386/99 148/387/99 150/388/99
f 160/389/100 159/390/100 150/391/100 151/392/100
f 161/393/101 160/394/101 151/395/101 152/396/101
f 163/397/102 162/398/102 155/399/102 157/400/102
f 164/401/103 163/402/103 157/403/103 146/404/103
f 165/405/104 164/406/104 146/407/104 149/408/104
f 166/409/105 165/410/105 149/411/105 159/412/105
f 167/413/106 166/414/106 159/415/106 160/416/106
f 168/417/107 167/418/107 160/419/107 161/420/107
f 169/421/108 168/422/108 161/423/108 154/424/108
f 162/425/109 169/426/109 154/427/109 155/428/109
f 156/429/110 170/430/110 171/431/110 158/432/110
f 158/433/111 171/434/111 172/435/111 147/436/111
f 147/437/112 172/438/112 173/439/112 148/440/112
f 148/441/113 173/442/113 174/443/113 150/444/113
f 150/445/114 174/446/114 175/447/114 151/448/114
f 151/449/115 175/450/115 176/451/115 152/452/115
f 152/453/116 176/454/116 177/455/116 153/456/116
f 153/457/117 177/458/117 170/459/117 156/460/117
f 187/461/118 186/462/118 184/463/118 185/464/118
f 181/465/119 180/466/119 192/467/119 193/468/119
f 193/469/120 192/470/120 190/471/120 191/472/120
f 191/473/121 190/474/121 188/475/121 189/476/121
f 189/477/122 188/478/122 186/479/122 187/480/122
f 185/481/123 184/482/123 182/483/123 183/484/123
f 183/485/124 182/486/124 178/487/124 179/488/124
f 179/489/125 178/490/125 180/491/125 181/492/125
f 201/493/126 202/494/126 209/495/126 200/496/126
f 194/497/127 203/498/127 202/499/127 201/500/127
f 194/501/128 195/502/128 204/503/128 203/504/128
f 196/505/129 205/506/129 204/507/129 195/508/129
f 197/509/130 206/510/130 205/511/130 196/512/130
f 198/513/131 207/514/131 206/515/131 197/516/131
f 199/517/132 208/518/132 207/519/132 198/520/132
f 210/521/133 211/522/133 203/523/133 204/524/133
f 211/525/134 212/526/134 202/527/134 203/528/134
f 212/529/135 214/530/135 209/531/135 202/532/135
f 214/533/136 213/534/136 208/535/136 209/536/136
f 213/537/137 215/538/137 207/539/137 208/540/137
f 215/541/138 216/542/138 206/543/138 207/544/138
f 216/545/139 217/546/139 205/547/139 206/548/139
f 217/549/140 210/550/140 204/551/140 205/552/140
f 218/553/141 219/554/141 220/555/141 221/556/141
f 222/557/142 218/558/142 221/559/142 223/560/142
f 224/561/143 222/562/143 223/563/143 225/564/143
f 219/565/144 224/566/144 225/567/144 220/568/144
f 221/569/145 220/570/145 225/571/145 223/572/145
f 226/573/146 224/574/146 219/575/146 227/576/146
f 228/577/147 222/578/147 224/579/147 229/580/147
f 230/581/148 218/582/148 222/583/148 231/584/148
f 232/585/149 219/586/149 218/587/149 233/588/149
f 232/589/150 227/590/150 219/591/150
f 226/592/151 229/593/151 224/594/151
f 228/595/152 231/596/152 222/597/152
f 230/598/153 233/599/153 218/600/153
f 212/601/154 228/602/154 229/603/154 214/604/154
f 211/605/155 231/606/155 228/607/155 212/608/155
f 210/609/156 230/610/156 231/611/156 211/612/156
f 217/613/157 233/614/157 230/615/157 210/616/157
f 216/617/158 232/618/158 233/619/158 217/620/158
f 215/621/159 227/622/159 232/623/159 216/624/159
f 213/625/160 226/626/160 227/627/160 215/628/160
f 214/629/161 229/630/161 226/631/161 213/632/161
f 234/633/162 235/634/162 236/635/162 237/636/162
f 238/637/163 234/638/163 237/639/163 239/640/163
f 240/641/164 238/642/164 239/643/164 241/644/164
f 235/645/165 240/646/165 241/647/165 236/648/165
f 237/649/166 236/650/166 241/651/166 239/652/166
f 200/653/167 209/654/167 208/655/167 199/656/167
f 195/657/168 194/658/168 191/659/168 189/660/168
f 196/661/169 195/662/169 189/663/169 187/664/169
f 197/665/170 196/666/170 187/667/170 185/668/170
f 198/669/171 197/670/171 185/671/171 183/672/171
f 199/673/172 198/674/172 183/675/172 179/676/172
f 200/677/173 199/678/173 179/679/173 181/680/173
f 201/681/174 200/682/174 181/683/174 193/684/174
f 194/685/175 201/686/175 193/687/175 191/688/175
o trusses_small
v 0 1.9999999999999996 -3.6875
v 0 1.9999999999999996 -3.1875
v 0 0.9999999999999994 -3.6875
v 0 0.9999999999999996 -3.1875
v 0.5 1.4999999999999993 -3.6875
v 0.5 1.4999999999999996 -3.1875
v -0.5 1.4999999999999993 -3.6875
v -0.5 1.4999999999999996 -3.1875
v -0.25881875 1.9482874999999993 -3.6875
v -0.25881875 1.9482874999999995 -3.1875
v 0.25881875 1.0517124999999994 -3.6875
v 0.25881875 1.0517124999999994 -3.1875
v -0.4482875 1.7588187499999994 -3.6875
v -0.4482875 1.7588187499999997 -3.1875
v 0.4482875 1.2411812499999995 -3.6875
v 0.4482875 1.2411812499999995 -3.1875
v -0.4482875 1.2411812499999995 -3.6875
v -0.4482875 1.2411812499999995 -3.1875
v 0.4482875 1.7588187499999994 -3.6875
v 0.4482875 1.7588187499999997 -3.1875
v -0.25881875 1.0517124999999994 -3.6875
v -0.25881875 1.0517124999999994 -3.1875
v 0.25881875 1.9482874999999993 -3.6875
v 0.25881875 1.9482874999999995 -3.1875
vt 0 1
vt 0 0.75
vt 0.1250003125 0.75
vt 0.1250003125 1
vt 0 1
vt 0 0.75
vt 0.1250003125 0.75
vt 0.1250003125 1
vt 0 1
vt 0 0.75
vt 0.1250003125 0.75
vt 0.1250003125 1
vt 0 1
vt 0 0.75
vt 0.1250003125 0.75
vt 0.1250003125 1
vt 0 1
vt 0 0.75
vt 0.1250003125 0.75
vt 0.1250003125 1
vt 0 1
vt 0 0.75
vt 0.1250003125 0.75
vt 0.1250003125 1
vn 1 0 0
vn 0 -1 2.220446049250313e-16
vn 0.8660255366227391 0.499999769917244 -1.11022251373881e-16
vn 0.499999769917244 0.8660255366227391 -1.9229629813438433e-16
vn -0.499999769917244 0.8660255366227391 -1.9229629813438433e-16
vn -0.8660255366227391 0.499999769917244 -1.11022251373881e-16
usemtl m_3ab80a02-cc98-38d4-3da0-6f15806ce6e7
f 244/689/176 242/690/176 243/691/176 245/692/176
f 248/693/177 246/694/177 247/695/177 249/696/177
f 252/697/178 250/698/178 251/699/178 253/700/178
f 256/701/179 254/702/179 255/703/179 257/704/179
f 260/705/180 258/706/180 259/707/180 261/708/180
f 264/709/181 262/710/181 263/711/181 265/712/181
o unculled
v 0.207106875 1.9999999999999996 -3.5625
v -0.207106875 1.9999999999999996 -3.5625
v -0.5 1.7071068749999994 -3.5625
v -0.207106875 0.9999999999999994 -3.5625
v -0.5 1.2928931249999995 -3.5625
v 0.207106875 0.9999999999999994 -3.5625
v 0.5 1.2928931249999995 -3.5625
v 0.5 1.7071068749999994 -3.5625
v 0.5 1.2928931249999993 -3.8125
v 0.207106875 0.9999999999999993 -3.8125
v -0.207106875 0.9999999999999993 -3.8125
v -0.5 1.2928931249999993 -3.8125
v -0.5 1.7071068749999994 -3.8125
v -0.207106875 1.9999999999999993 -3.8125
v 0.207106875 1.9999999999999993 -3.8125
v 0.5 1.7071068749999994 -3.8125
vt 0.010809375 0.687499375
vt 0.1143625 0.687499375
vt 0.1143625 0.749999375
vt 0.010809375 0.749999375
vt 0.010809375 0.687499375
vt 0.1143625 0.687499375
vt 0.1143625 0.749999375
vt 0.010809375 0.749999375
vt 0.010809375 0.687499375
vt 0.1143625 0.687499375
vt 0.1143625 0.749999375
vt 0.010809375 0.749999375
vt 0.010809375 0.687499375
vt 0.1143625 0.687499375
vt 0.1143625 0.749999375
vt 0.010809375 0.749999375
vt 0.010809375 0.687499375
vt 0.1143625 0.687499375
vt 0.1143625 0.749999375
vt 0.010809375 0.749999375
vt 0.010809375 0.687499375
vt 0.1143625 0.687499375
vt 0.1143625 0.749999375
vt 0.010809375 0.749999375
vt 0.010809375 0.687499375
vt 0.1143625 0.687499375
vt 0.1143625 0.749999375
vt 0.010809375 0.749999375
vt 0.010809375 0.687499375
vt 0.1143625 0.687499375
vt 0.1143625 0.749999375
vt 0.010809375 0.749999375
vn 0.7071067811865476 -0.7071067811865476 1.5700924586837752e-16
vn 0 -1 2.220446049250313e-16
vn -0.7071067811865476 -0.7071067811865476 1.5700924586837752e-16
vn -1 0 0
vn -0.7071067811865476 0.7071067811865476 -1.5700924586837752e-16
vn 0 1 -2.220446049250313e-16
vn 0.7071067811865476 0.7071067811865476 -1.5700924586837752e-16
vn 1 0 0
usemtl m_3ab80a02-cc98-38d4-3da0-6f15806ce6e7
f 275/713/182 274/714/182 272/715/182 271/716/182
f 276/717/183 275/718/183 271/719/183 269/720/183
f 277/721/184 276/722/184 269/723/184 270/724/184
f 278/725/185 277/726/185 270/727/185 268/728/185
f 279/729/186 278/730/186 268/731/186 267/732/186
f 280/733/187 279/734/187 267/735/187 266/736/187
f 281/737/188 280/738/188 266/739/188 273/740/188
f 274/741/189 281/742/189 273/743/189 272/744/189
o turbofan
v 0.5177675 0.2499987500000007 0.06250000000000044
v -0.5177675 0.2499987500000007 0.06250000000000044
v -0.5177675 0.24999875000000094 1
v 0.5177675 0.24999875000000094 1
v 1.25000125 0.9822325000000006 0.0625
v 1.25000125 0.9822325000000008 1
v 1.25000125 2.0177675000000006 0.0625
v 1.25000125 2.017767500000001 1
v 0.5177675 2.7500012500000004 0.062499999999999556
v 0.5177675 2.750001250000001 1
v -0.5177675 2.750001250000001 1
v -0.5177675 2.7500012500000004 0.062499999999999556
v -1.25000125 2.0177675000000006 0.0625
v -1.25000125 2.017767500000001 1
v -1.25000125 0.9822325000000006 0.0625
v -1.25000125 0.9822325000000008 1
v 0.625 1.7588837500000007 -0.0625
v 0.625 1.2411162500000006 -0.0625
v 0.625 1.2411162500000006 0.0625
v 0.625 1.7588837500000007 0.0625
v 0.25888375 2.125000000000001 -0.0625
v 0.25888375 2.125000000000001 0.0625
v -0.25888375 2.125000000000001 0.0625
v -0.25888375 2.125000000000001 -0.0625
v -0.625 1.7588837500000007 -0.0625
v -0.625 1.7588837500000007 0.0625
v -0.625 1.2411162500000006 -0.0625
v -0.625 1.2411162500000006 0.0625
v -0.25888375 0.8750000000000007 -0.0625
v -0.25888375 0.8750000000000007 0.0625
v 0.25888375 0.8750000000000007 -0.0625
v 0.25888375 0.8750000000000007 0.0625
v 0.75 1.1893400000000007 -0.0625
v 0.31066 0.7500000000000007 -0.0625
v 0.31066 0.7500000000000007 0.0625
v 0.75 1.1893400000000007 0.0625
v 0.75 1.8106600000000006 -0.0625
v 0.75 1.8106600000000006 0.0625
v 0.31066 2.250000000000001 -0.0625
v 0.31066 2.250000000000001 0.0625
v -0.31066 2.250000000000001 0.0625
v -0.31066 2.250000000000001 -0.0625
v -0.75 1.8106600000000006 -0.0625
v -0.75 1.8106600000000006 0.0625
v -0.75 1.1893400000000007 -0.0625
v -0.75 1.1893400000000007 0.0625
v -0.31066 0.7500000000000007 -0.0625
v -0.31066 0.7500000000000007 0.0625
v 1.18750125 1.0081206250000008 0.5625
v 0.491879375 0.31249875000000094 0.5625000000000004
v 0.491879375 0.31249875000000094 1
v 1.18750125 1.008120625000001 1
v -0.491879375 0.31249875000000094 0.5625000000000004
v -0.491879375 0.31249875000000094 1
v 1.18750125 1.9918793750000008 0.5625
v 1.18750125 1.9918793750000008 1
v 0.491879375 2.687501250000001 0.5624999999999996
v 0.491879375 2.687501250000001 1
v -0.491879375 2.687501250000001 1
v -0.491879375 2.687501250000001 0.5624999999999996
v -1.18750125 1.9918793750000008 0.5625
v -1.18750125 1.9918793750000008 1
v -1.18750125 1.0081206250000008 0.5625
v -1.18750125 1.008120625000001 1
vt 0.588158671875 0.882812421875
vt 0.588158671875 1
vt 0.45871640625 1
vt 0.45871640625 0.882812421875
vt 0.588158671875 0.882812421875
vt 0.588158671875 1
vt 0.45871640625 1
vt 0.45871640625 0.882812421875
vt 0.45871640625 0.882812421875
vt 0.588158671875 0.882812421875
vt 0.588158671875 1
vt 0.45871640625 1
vt 0.588158671875 0.882812421875
vt 0.588158671875 1
vt 0.45871640625 1
vt 0.45871640625 0.882812421875
vt 0.588158671875 0.882812421875
vt 0.588158671875 1
vt 0.45871640625 1
vt 0.45871640625 0.882812421875
vt 0.588158671875 0.882812421875
vt 0.588158671875 1
vt 0.45871640625 1
vt 0.45871640625 0.882812421875
vt 0.588158671875 0.882812421875
vt 0.588158671875 1
vt 0.45871640625 1
vt 0.45871640625 0.882812421875
vt 0.588158671875 0.882812421875
vt 0.588158671875 1
vt 0.45871640625 1
vt 0.45871640625 0.882812421875
vt 0.5623125 0.820312421875
vt 0.48464765625 0.820312421875
vt 0.48464765625 0.8359375
vt 0.5623125 0.8359375
vt 0.5623125 0.820312421875
vt 0.48464765625 0.820312421875
vt 0.48464765625 0.8359375
vt 0.5623125 0.8359375
vt 0.48464765625 0.820312421875
vt 0.48464765625 0.8359375
vt 0.5623125 0.8359375
vt 0.5623125 0.820312421875
vt 0.5623125 0.820312421875
vt 0.48464765625 0.820312421875
vt 0.48464765625 0.8359375
vt 0.5623125 0.8359375
vt 0.5623125 0.820312421875
vt 0.48464765625 0.820312421875
vt 0.48464765625 0.8359375
vt 0.5623125 0.8359375
vt 0.5623125 0.820312421875
vt 0.48464765625 0.820312421875
vt 0.48464765625 0.8359375
vt 0.5623125 0.8359375
vt 0.5623125 0.820312421875
vt 0.48464765625 0.820312421875
vt 0.48464765625 0.8359375
vt 0.5623125 0.8359375
vt 0.5623125 0.820312421875
vt 0.48464765625 0.820312421875
vt 0.48464765625 0.8359375
vt 0.5623125 0.8359375
vt 0.48464765625 0.8203125
vt 0.48464765625 0.804687421875
vt 0.5623125 0.804687421875
vt 0.5623125 0.8203125
vt 0.48464765625 0.8203125
vt 0.48464765625 0.804687421875
vt 0.5623125 0.804687421875
vt 0.5623125 0.8203125
vt 0.5623125 0.8203125
vt 0.48464765625 0.8203125
vt 0.48464765625 0.804687421875
vt 0.5623125 0.804687421875
vt 0.48464765625 0.8203125
vt 0.48464765625 0.804687421875
vt 0.5623125 0.804687421875
vt 0.5623125 0.8203125
vt 0.48464765625 0.8203125
vt 0.48464765625 0.804687421875
vt 0.5623125 0.804687421875
vt 0.5623125 0.8203125
vt 0.48464765625 0.8203125
vt 0.48464765625 0.804687421875
vt 0.5623125 0.804687421875
vt 0.5623125 0.8203125
vt 0.48464765625 0.8203125
vt 0.48464765625 0.804687421875
vt 0.5623125 0.804687421875
vt 0.5623125 0.8203125
vt 0.48464765625 0.8203125
vt 0.48464765625 0.804687421875
vt 0.5623125 0.804687421875
vt 0.5623125 0.8203125
vt 0.46194921875 0.8828125
vt 0.58491875 0.8828125
vt 0.58491875 0.835937421875
vt 0.46194921875 0.835937421875
vt 0.46194921875 0.8828125
vt 0.58491875 0.8828125
vt 0.58491875 0.835937421875
vt 0.46194921875 0.835937421875
vt 0.58491875 0.8828125
vt 0.58491875 0.835937421875
vt 0.46194921875 0.835937421875
vt 0.46194921875 0.8828125
vt 0.46194921875 0.8828125
vt 0.58491875 0.8828125
vt 0.58491875 0.835937421875
vt 0.46194921875 0.835937421875
vt 0.46194921875 0.8828125
vt 0.58491875 0.8828125
vt 0.58491875 0.835937421875
vt 0.46194921875 0.835937421875
vt 0.46194921875 0.8828125
vt 0.58491875 0.8828125
vt 0.58491875 0.835937421875
vt 0.46194921875 0.835937421875
vt 0.46194921875 0.8828125
vt 0.58491875 0.8828125
vt 0.58491875 0.835937421875
vt 0.46194921875 0.835937421875
vt 0.46194921875 0.8828125
vt 0.58491875 0.8828125
vt 0.58491875 0.835937421875
vt 0.46194921875 0.835937421875
vt 0.461952421875 0.890625
vt 0.584922265625 0.890625
vt 0.58815828125 0.8828125
vt 0.45871640625 0.8828125
vt 0.461952421875 0.890625
vt 0.584922265625 0.890625
vt 0.58815828125 0.8828125
vt 0.45871640625 0.8828125
vt 0.461952421875 0.890625
vt 0.584922265625 0.890625
vt 0.58815828125 0.8828125
vt 0.45871640625 0.8828125
vt 0.461952421875 0.890625
vt 0.584922265625 0.890625
vt 0.58815828125 0.8828125
vt 0.45871640625 0.8828125
vt 0.461952421875 0.890625
vt 0.584922265625 0.890625
vt 0.58815828125 0.8828125
vt 0.45871640625 0.8828125
vt 0.461952421875 0.890625
vt 0.584922265625 0.890625
vt 0.58815828125 0.8828125
vt 0.45871640625 0.8828125
vt 0.584922265625 0.890625
vt 0.58815828125 0.8828125
vt 0.45871640625 0.8828125
vt 0.461952421875 0.890625
vt 0.461952421875 0.890625
vt 0.584922265625 0.890625
vt 0.58815828125 0.8828125
vt 0.45871640625 0.8828125
vt 0.4911203125 0.820312109375
vt 0.48464765625 0.804687109375
vt 0.56231328125 0.804687109375
vt 0.555840625 0.820312109375
vt 0.555840625 0.8203125
vt 0.562312265625 0.804687109375
vt 0.48464765625 0.804687109375
vt 0.491119375 0.8203125
vt 0.555840625 0.820312109375
vt 0.56231328125 0.804687109375
vt 0.48464765625 0.804687109375
vt 0.4911203125 0.820312109375
vt 0.555840625 0.8203125
vt 0.562312265625 0.804687109375
vt 0.48464765625 0.804687109375
vt 0.491119375 0.8203125
vt 0.555840625 0.820312109375
vt 0.56231328125 0.804687109375
vt 0.48464765625 0.804687109375
vt 0.4911203125 0.820312109375
vt 0.555840625 0.8203125
vt 0.562312265625 0.804687109375
vt 0.48464765625 0.804687109375
vt 0.491119375 0.8203125
vt 0.555840625 0.8203125
vt 0.56231328125 0.8046875
vt 0.48464765625 0.8046875
vt 0.4911203125 0.8203125
vt 0.555840625 0.8203125
vt 0.562312265625 0.804687109375
vt 0.48464765625 0.804687109375
vt 0.491119375 0.8203125
vn -1 0 0
vn -0.7071067811865476 0.7071067811865476 -1.5700924586837752e-16
vn 0 1 -2.220446049250313e-16
vn 0.7071067811865476 0.7071067811865476 -1.5700924586837752e-16
vn 1 0 0
vn 0.7071067811865476 -0.7071067811865476 1.5700924586837752e-16
vn 0 -1 2.220446049250313e-16
vn -0.7071067811865476 -0.7071067811865476 1.5700924586837752e-16
vn 1 0 0
vn 0.7071067811865476 -0.7071067811865476 1.5700924586837752e-16
vn 0 -1 2.220446049250313e-16
vn -0.7071067811865476 -0.7071067811865476 1.5700924586837752e-16
vn -1 0 0
vn -0.7071067811865476 0.7071067811865476 -1.5700924586837752e-16
vn 0 1 -2.220446049250313e-16
vn 0.7071067811865476 0.7071067811865476 -1.5700924586837752e-16
vn -1 0 0
vn -0.7071067811865476 0.7071067811865476 -1.5700924586837752e-16
vn 0 1 -2.220446049250313e-16
vn 0.7071067811865476 0.7071067811865476 -1.5700924586837752e-16
vn 1 0 0
vn 0.7071067811865476 -0.7071067811865476 1.5700924586837752e-16
vn 0 -1 2.220446049250313e-16
vn -0.7071067811865476 -0.7071067811865476 1.5700924586837752e-16
vn 1 0 0
vn 0.7071067811865476 -0.7071067811865476 1.5700924586837752e-16
vn 0 -1 2.220446049250313e-16
vn -0.7071067811865476 -0.7071067811865476 1.5700924586837752e-16
vn -1 0 0
vn -0.7071067811865476 0.7071067811865476 -1.5700924586837752e-16
vn 0 1 -2.220446049250313e-16
vn 0.7071067811865476 0.7071067811865476 -1.5700924586837752e-16
vn 0 2.220446049250313e-16 1
vn 0 2.220446049250313e-16 1
vn 0 2.220446049250313e-16 1
vn 0 2.220446049250313e-16 1
vn 0 2.220446049250313e-16 1
vn 0 2.220446049250313e-16 1
vn 0 2.220446049250313e-16 1
vn 0 2.220446049250313e-16 1
vn 0 -2.220446049250313e-16 -1
vn 0 -2.220446049250313e-16 -1
vn 0 -2.220446049250313e-16 -1
vn 0 -2.220446049250313e-16 -1
vn 0 -2.220446049250313e-16 -1
vn 0 -2.220446049250313e-16 -1
vn 0 -2.220446049250313e-16 -1
vn 0 -2.220446049250313e-16 -1
usemtl m_fb4282bc-10f8-24fc-5e12-044afee62972
f 295/745/190 294/746/190 296/747/190 297/748/190
f 292/749/191 293/750/191 294/751/191 295/752/191
f 292/753/192 291/754/192 290/755/192 293/756/192
f 289/757/193 288/758/193 290/759/193 291/760/193
f 287/761/194 286/762/194 288/763/194 289/764/194
f 285/765/195 282/766/195 286/767/195 287/768/195
f 284/769/196 283/770/196 282/771/196 285/772/196
f 297/773/197 296/774/197 283/775/197 284/776/197
f 308/777/198 306/778/198 307/779/198 309/780/198
f 306/781/199 305/782/199 304/783/199 307/784/199
f 302/785/200 303/786/200 304/787/200 305/788/200
f 302/789/201 298/790/201 301/791/201 303/792/201
f 298/793/202 299/794/202 300/795/202 301/796/202
f 299/797/203 312/798/203 313/799/203 300/800/203
f 312/801/204 310/802/204 311/803/204 313/804/204
f 310/805/205 308/806/205 309/807/205 311/808/205
f 325/809/206 324/810/206 326/811/206 327/812/206
f 322/813/207 323/814/207 324/815/207 325/816/207
f 322/817/208 321/818/208 320/819/208 323/820/208
f 319/821/209 318/822/209 320/823/209 321/824/209
f 317/825/210 314/826/210 318/827/210 319/828/210
f 316/829/211 315/830/211 314/831/211 317/832/211
f 329/833/212 328/834/212 315/835/212 316/836/212
f 327/837/213 326/838/213 328/839/213 329/840/213
f 344/841/214 342/842/214 343/843/214 345/844/214
f 342/845/215 341/846/215 340/847/215 343/848/215
f 338/849/216 339/850/216 340/851/216 341/852/216
f 338/853/217 336/854/217 337/855/217 339/856/217
f 336/857/218 330/858/218 333/859/218 337/860/218
f 330/861/219 331/862/219 332/863/219 333/864/219
f 331/865/220 334/866/220 335/867/220 332/868/220
f 334/869/221 344/870/221 345/871/221 335/872/221
f 340/873/222 339/874/222 291/875/222 292/876/222
f 339/877/223 337/878/223 289/879/223 291/880/223
f 337/881/224 333/882/224 287/883/224 289/884/224
f 333/885/225 332/886/225 285/887/225 287/888/225
f 332/889/226 335/890/226 284/891/226 285/892/226
f 335/893/227 345/894/227 297/895/227 284/896/227
f 343/897/228 295/898/228 297/899/228 345/900/228
f 343/901/229 340/902/229 292/903/229 295/904/229
f 305/905/230 323/906/230 320/907/230 302/908/230
f 306/909/231 324/910/231 323/911/231 305/912/231
f 308/913/232 326/914/232 324/915/232 306/916/232
f 310/917/233 328/918/233 326/919/233 308/920/233
f 312/921/234 315/922/234 328/923/234 310/924/234
f 299/925/235 314/926/235 315/927/235 312/928/235
f 298/929/236 318/930/236 314/931/236 299/932/236
f 302/933/237 320/934/237 318/935/237 298/936/237
o chasis_selection
v 0.62500125 1.24111625 -1.875
v 0 1.5 -1.875
v 0.62500125 1.75888375 -1.875
v 0.25888375 2.12500125 -1.875
v -0.25888375 2.12500125 -1.875
v -0.62500125 1.75888375 -1.875
v -0.62500125 1.24111625 -1.875
v -0.25888375 0.87499875 -1.875
v 0.25888375 0.87499875 -1.875
vt 0.84375 0.652300390625
vt 0.921875 0.6846609375
vt 0.921875 0.61993984375
vt 0.84375 0.652300390625
vt 0.921875 0.6846609375
vt 0.921875 0.61993984375
vt 0.84375 0.652300390625
vt 0.921875 0.6846609375
vt 0.921875 0.61993984375
vt 0.84375 0.652300390625
vt 0.921875 0.6846609375
vt 0.921875 0.61993984375
vt 0.84375 0.652300390625
vt 0.921875 0.6846609375
vt 0.921875 0.61993984375
vt 0.84375 0.652300390625
vt 0.921875 0.6846609375
vt 0.921875 0.61993984375
vt 0.84375 0.652300390625
vt 0.921875 0.6846609375
vt 0.921875 0.61993984375
vt 0.84375 0.652300390625
vt 0.921875 0.6846609375
vt 0.921875 0.61993984375
vn 0 0 1
vn 0 0 1
vn 0 0 1
vn 0 0 1
vn 0 0 1
vn 0 0 1
vn 0 0 1
vn 0 0 1
usemtl m_fb4282bc-10f8-24fc-5e12-044afee62972
f 347/937/238 353/938/238 354/939/238
f 347/940/239 354/941/239 346/942/239
f 347/943/240 346/944/240 348/945/240
f 347/946/241 348/947/241 349/948/241
f 347/949/242 349/950/242 350/951/242
f 347/952/243 350/953/243 351/954/243
f 347/955/244 351/956/244 352/957/244
f 347/958/245 352/959/245 353/960/245
o mid
v 0.4375 1.9375 0.0625
v 0.4375 1.0625 0.0625
v 0.4375 1.0625 -1.875
v 0.4375 1.9375 -1.875
v -0.4375 1.9375 0.0625
v -0.4375 1.9375 -1.875
v -0.4375 1.0625 0.0625
v -0.4375 1.0625 -1.875
vt 0.59375 0.7578125
vt 0.703125 0.7578125
vt 0.703125 1
vt 0.59375 1
vt 0.59375 1
vt 0.703125 1
vt 0.703125 0.7578125
vt 0.59375 0.7578125
vt 0.59375 0.7578125
vt 0.703125 0.7578125
vt 0.703125 1
vt 0.59375 1
vt 0.59375 1
vt 0.703125 1
vt 0.703125 0.7578125
vt 0.59375 0.7578125
vn 1 0 0
vn 0 1 0
vn -1 0 0
vn 0 -1 0
usemtl m_fb4282bc-10f8-24fc-5e12-044afee62972
f 355/961/246 356/962/246 357/963/246 358/964/246
f 359/965/247 355/966/247 358/967/247 360/968/247
f 361/969/248 359/970/248 360/971/248 362/972/248
f 356/973/249 361/974/249 362/975/249 357/976/249
o midjunk
v 0.5 2 0.0625
v 0.5 1 0.0625
v 0.5 1 -1.875
v 0.5 2 -1.875
v -0.5 2 0.0625
v -0.5 2 -1.875
v -0.5 1 0.0625
v -0.5 1 -1.875
vt 0.75 0
vt 1 0
vt 1 0.484375
vt 0.75 0.484375
vt 0.5 0
vt 0.75 0
vt 0.75 0.484375
vt 0.5 0.484375
vt 1 0
vt 0.75 0
vt 0.75 0.484375
vt 1 0.484375
vt 0.25 0
vt 0.5 0
vt 0.5 0.484375
vt 0.25 0.484375
vn 1 0 0
vn 0 1 0
vn -1 0 0
vn 0 -1 0
usemtl m_3ab80a02-cc98-38d4-3da0-6f15806ce6e7
f 363/977/250 364/978/250 365/979/250 366/980/250
f 367/981/251 363/982/251 366/983/251 368/984/251
f 369/985/252 367/986/252 368/987/252 370/988/252
f 364/989/253 369/990/253 370/991/253 365/992/253
o junkpopout
v 0.625 1.375 0.0625
v 0.4375 1.375 0.0625
v 0.4375 1.375 -0.5
v 0.625 1.375 -0.5
v 0.625 1.75 0.0625
v 0.625 1.75 -0.5
v 0.4375 1.75 0.0625
v 0.4375 1.75 -0.5
v 0.4375 1.5625 -0.5
v 0.5625 1.5625 -0.5
v 0.5625 1.5625 -1.25
v 0.4375 1.5625 -1.25
v 0.5625 1.4375 -0.5
v 0.5625 1.4375 -1.25
v 0.4375 1.4375 -0.5
v 0.4375 1.4375 -1.25
v 0.5625 1.3125 0.0625
v 0.5625 1.1875 0.0625
v 0.5625 1.1875 -1.875
v 0.5625 1.3125 -1.875
v 0.4375 1.3125 0.0625
v 0.4375 1.3125 -1.875
v 0.4375 1.1875 0.0625
v 0.4375 1.1875 -1.875
v 0.625 1.6875 -1.25
v 0.625 1.3125 -1.25
v 0.625 1.3125 -1.625
v 0.625 1.6875 -1.625
v 0.4375 1.3125 -1.25
v 0.4375 1.3125 -1.625
v 0.4375 1.6875 -1.625
v 0.4375 1.6875 -1.25
v 0.5625 1.6875 -0.5
v 0.5625 1.5625 -0.5
v 0.5625 1.5625 -1
v 0.5625 1.6875 -1
v 0.4375 1.6875 -0.5
v 0.4375 1.6875 -1
v -0.5625 2.0625 -0.875
v 0.5625 2.0625 -0.875
v 0.5625 2.0625 -1
v -0.5625 2.0625 -1
v 0.5625 1.9375 -1
v -0.5625 1.9375 -1
v -0.5625 1.9375 -0.875
v 0.5625 1.9375 -0.875
v 0.5625 1.5625 -1
v 0.4375 1.5625 -1
v 0.5625 1.9375 -1
v 0.4375 1.9375 -1
v 0.5625 2.0625 -0.875
v 0.5625 1.6875 -0.875
v 0.5625 2.0625 -1
v 0.5625 1.6875 -1
v 0.5625 1.6875 -0.875
v 0.4375 1.6875 -0.875
v 0.5625 1.9375 -0.875
v 0.4375 1.9375 -0.875
v 0.5625 1.1875 -1.0625
v 0.5625 0.9375 -1.0625
v 0.5625 1.1875 -1.1875
v 0.5625 0.9375 -1.1875
v 0.5625 1.0625 -1.0625
v 0.4375 1.0625 -1.0625
v 0.5625 1.1875 -1.0625
v 0.4375 1.1875 -1.0625
v 0.5625 1.0625 -1.1875
v 0.4375 1.0625 -1.1875
v 0.5625 1.1875 -1.1875
v 0.4375 1.1875 -1.1875
v 0.5625 0.9375 -1.1875
v -0.5625 0.9375 -1.1875
v 0.5625 1.0625 -1.1875
v -0.5625 1.0625 -1.1875
v -0.5625 1.0625 -1.0625
v 0.5625 1.0625 -1.0625
v -0.5625 0.9375 -1.0625
v 0.5625 0.9375 -1.0625
v -0.5625 0.9375 -1.0625
v 0.5625 0.9375 -1.0625
v 0.5625 0.9375 -1.1875
v -0.5625 0.9375 -1.1875
v 0.5625 1.1875 -0.4375
v 0.5625 0.9375 -0.4375
v 0.5625 1.1875 -0.5625
v 0.5625 0.9375 -0.5625
v 0.5625 1.0625 -0.5625
v 0.4375 1.0625 -0.5625
v 0.5625 1.1875 -0.5625
v 0.4375 1.1875 -0.5625
v 0.5625 1.0625 -0.4375
v 0.4375 1.0625 -0.4375
v 0.5625 1.1875 -0.4375
v 0.4375 1.1875 -0.4375
v 0.5625 0.9375 -0.5625
v -0.5625 0.9375 -0.5625
v 0.5625 1.0625 -0.5625
v -0.5625 1.0625 -0.5625
v -0.5625 0.9375 -0.4375
v 0.5625 0.9375 -0.4375
v -0.5625 1.0625 -0.4375
v 0.5625 1.0625 -0.4375
v 0.5625 0.9375 -0.4375
v -0.5625 0.9375 -0.4375
v 0.5625 0.9375 -0.5625
v -0.5625 0.9375 -0.5625
v 0.5625 1.625 -1.625
v 0.5625 1.375 -1.625
v 0.5625 1.375 -1.875
v 0.5625 1.625 -1.875
v 0.4375 1.625 -1.625
v 0.4375 1.625 -1.875
v 0.4375 1.375 -1.625
v 0.4375 1.375 -1.875
v -0.625 1.75 0.0625
v -0.625 1.375 0.0625
v -0.625 1.375 -0.5
v -0.625 1.75 -0.5
v -0.4375 1.75 0.0625
v -0.4375 1.75 -0.5
v -0.4375 1.375 0.0625
v -0.4375 1.375 -0.5
v -0.5625 1.5625 -0.5
v -0.5625 1.4375 -0.5
v -0.5625 1.4375 -1.25
v -0.5625 1.5625 -1.25
v -0.4375 1.5625 -0.5
v -0.4375 1.5625 -1.25
v -0.4375 1.4375 -0.5
v -0.4375 1.4375 -1.25
v -0.5625 1.3125 0.0625
v -0.5625 1.1875 0.0625
v -0.5625 1.1875 -1.875
v -0.5625 1.3125 -1.875
v -0.4375 1.3125 0.0625
v -0.4375 1.3125 -1.875
v -0.4375 1.1875 0.0625
v -0.4375 1.1875 -1.875
v -0.625 1.6875 -1.25
v -0.625 1.3125 -1.25
v -0.625 1.3125 -1.625
v -0.625 1.6875 -1.625
v -0.4375 1.6875 -1.25
v -0.4375 1.6875 -1.625
v -0.4375 1.3125 -1.25
v -0.4375 1.3125 -1.625
v -0.5625 1.6875 -0.5
v -0.5625 1.5625 -0.5
v -0.5625 1.5625 -1
v -0.5625 1.6875 -1
v -0.4375 1.6875 -0.5
v -0.4375 1.6875 -1
v -0.5625 1.5625 -1
v -0.4375 1.5625 -1
v -0.5625 1.9375 -1
v -0.4375 1.9375 -1
v -0.5625 2.0625 -0.875
v -0.5625 1.6875 -0.875
v -0.5625 2.0625 -1
v -0.5625 1.6875 -1
v -0.5625 1.6875 -0.875
v -0.4375 1.6875 -0.875
v -0.5625 1.9375 -0.875
v -0.4375 1.9375 -0.875
v -0.5625 1.0625 -1.1875
v -0.4375 1.0625 -1.1875
v -0.5625 1.1875 -1.1875
v -0.4375 1.1875 -1.1875
v -0.5625 1.1875 -1.0625
v -0.5625 0.9375 -1.0625
v -0.5625 1.1875 -1.1875
v -0.5625 0.9375 -1.1875
v -0.5625 1.0625 -1.0625
v -0.4375 1.0625 -1.0625
v -0.5625 1.1875 -1.0625
v -0.4375 1.1875 -1.0625
v -0.5625 1.0625 -0.5625
v -0.4375 1.0625 -0.5625
v -0.5625 1.1875 -0.5625
v -0.4375 1.1875 -0.5625
v -0.5625 1.1875 -0.4375
v -0.5625 0.9375 -0.4375
v -0.5625 1.1875 -0.5625
v -0.5625 0.9375 -0.5625
v -0.5625 1.0625 -0.4375
v -0.4375 1.0625 -0.4375
v -0.5625 1.1875 -0.4375
v -0.4375 1.1875 -0.4375
v -0.5625 1.625 -1.625
v -0.5625 1.375 -1.625
v -0.5625 1.375 -1.875
v -0.5625 1.625 -1.875
v -0.4375 1.625 -1.625
v -0.4375 1.625 -1.875
v -0.4375 1.375 -1.625
v -0.4375 1.375 -1.875
vt 0.5 0.703125
vt 0.546875 0.703125
vt 0.546875 0.7734375
vt 0.5 0.7734375
vt 0.4765625 0.6328125
vt 0.453125 0.6328125
vt 0.453125 0.703125
vt 0.4765625 0.703125
vt 0.453125 0.6328125
vt 0.4765625 0.6328125
vt 0.4765625 0.703125
vt 0.453125 0.703125
vt 0.5 0.75
vt 0.453125 0.75
vt 0.453125 0.7734375
vt 0.5 0.7734375
vt 0.546875 0.6328125
vt 0.5625 0.6328125
vt 0.5625 0.7265625
vt 0.546875 0.7265625
vt 0.5625 0.6328125
vt 0.546875 0.6328125
vt 0.546875 0.7265625
vt 0.5625 0.7265625
vt 0.546875 0.6328125
vt 0.5625 0.6328125
vt 0.5625 0.7265625
vt 0.546875 0.7265625
vt 0.578125 0.484375
vt 0.59375 0.484375
vt 0.59375 0.7265625
vt 0.578125 0.7265625
vt 0.59375 0.484375
vt 0.578125 0.484375
vt 0.578125 0.7265625
vt 0.59375 0.7265625
vt 0.59375 0.484375
vt 0.578125 0.484375
vt 0.578125 0.7265625
vt 0.59375 0.7265625
vt 0.546875 0.7265625
vt 0.546875 0.75
vt 0.59375 0.75
vt 0.59375 0.7265625
vt 0.546875 0.75
vt 0.546875 0.7265625
vt 0.59375 0.7265625
vt 0.59375 0.75
vt 0.59375 0.75
vt 0.546875 0.75
vt 0.546875 0.7734375
vt 0.59375 0.7734375
vt 0.546875 0.7734375
vt 0.59375 0.7734375
vt 0.59375 0.75
vt 0.546875 0.75
vt 0.53125 0.6328125
vt 0.546875 0.6328125
vt 0.546875 0.6953125
vt 0.53125 0.6953125
vt 0.546875 0.6328125
vt 0.53125 0.6328125
vt 0.53125 0.6953125
vt 0.546875 0.6953125
vt 0.59375 0.7734375
vt 0.453125 0.7734375
vt 0.453125 0.7890625
vt 0.59375 0.7890625
vt 0.453125 0.8046875
vt 0.453125 0.7890625
vt 0.59375 0.7890625
vt 0.59375 0.8046875
vt 0.453125 0.8046875
vt 0.453125 0.7890625
vt 0.59375 0.7890625
vt 0.59375 0.8046875
vt 0.4921875 0.703125
vt 0.4921875 0.65625
vt 0.5078125 0.65625
vt 0.5078125 0.703125
vt 0.4921875 0.703125
vt 0.4765625 0.703125
vt 0.4765625 0.65625
vt 0.4921875 0.65625
vt 0.5078125 0.671875
vt 0.4921875 0.671875
vt 0.4921875 0.703125
vt 0.5078125 0.703125
vt 0.5078125 0.703125
vt 0.5078125 0.6875
vt 0.5234375 0.6875
vt 0.5234375 0.703125
vt 0.5234375 0.703125
vt 0.5078125 0.703125
vt 0.5078125 0.671875
vt 0.5234375 0.671875
vt 0.5234375 0.6875
vt 0.5078125 0.6875
vt 0.5078125 0.703125
vt 0.5234375 0.703125
vt 0.578125 0.7265625
vt 0.5625 0.7265625
vt 0.5625 0.5859375
vt 0.578125 0.5859375
vt 0.578125 0.5859375
vt 0.5625 0.5859375
vt 0.5625 0.7265625
vt 0.578125 0.7265625
vt 0.578125 0.5859375
vt 0.5625 0.5859375
vt 0.5625 0.7265625
vt 0.578125 0.7265625
vt 0.5078125 0.703125
vt 0.5078125 0.6875
vt 0.5234375 0.6875
vt 0.5234375 0.703125
vt 0.5234375 0.703125
vt 0.5078125 0.703125
vt 0.5078125 0.671875
vt 0.5234375 0.671875
vt 0.5234375 0.6875
vt 0.5078125 0.6875
vt 0.5078125 0.703125
vt 0.5234375 0.703125
vt 0.578125 0.7265625
vt 0.5625 0.7265625
vt 0.5625 0.5859375
vt 0.578125 0.5859375
vt 0.578125 0.5859375
vt 0.5625 0.5859375
vt 0.5625 0.7265625
vt 0.578125 0.7265625
vt 0.578125 0.5859375
vt 0.5625 0.5859375
vt 0.5625 0.7265625
vt 0.578125 0.7265625
vt 0.5078125 0.734375
vt 0.5390625 0.734375
vt 0.5390625 0.703125
vt 0.5078125 0.703125
vt 0.4765625 0.6640625
vt 0.4609375 0.6640625
vt 0.4609375 0.6328125
vt 0.4765625 0.6328125
vt 0.4609375 0.6640625
vt 0.4765625 0.6640625
vt 0.4765625 0.6328125
vt 0.4609375 0.6328125
vt 0.546875 0.7734375
vt 0.546875 0.703125
vt 0.5 0.703125
vt 0.5 0.7734375
vt 0.453125 0.703125
vt 0.453125 0.6328125
vt 0.4765625 0.6328125
vt 0.4765625 0.703125
vt 0.4765625 0.703125
vt 0.4765625 0.6328125
vt 0.453125 0.6328125
vt 0.453125 0.703125
vt 0.453125 0.7734375
vt 0.453125 0.75
vt 0.5 0.75
vt 0.5 0.7734375
vt 0.5625 0.7265625
vt 0.5625 0.6328125
vt 0.546875 0.6328125
vt 0.546875 0.7265625
vt 0.546875 0.7265625
vt 0.546875 0.6328125
vt 0.5625 0.6328125
vt 0.5625 0.7265625
vt 0.5625 0.7265625
vt 0.5625 0.6328125
vt 0.546875 0.6328125
vt 0.546875 0.7265625
vt 0.59375 0.7265625
vt 0.59375 0.484375
vt 0.578125 0.484375
vt 0.578125 0.7265625
vt 0.578125 0.7265625
vt 0.578125 0.484375
vt 0.59375 0.484375
vt 0.59375 0.7265625
vt 0.578125 0.7265625
vt 0.578125 0.484375
vt 0.59375 0.484375
vt 0.59375 0.7265625
vt 0.5 0.75
vt 0.5 0.703125
vt 0.453125 0.703125
vt 0.453125 0.75
vt 0.59375 0.75
vt 0.546875 0.75
vt 0.546875 0.7265625
vt 0.59375 0.7265625
vt 0.59375 0.7265625
vt 0.546875 0.7265625
vt 0.546875 0.75
vt 0.59375 0.75
vt 0.546875 0.7734375
vt 0.546875 0.75
vt 0.59375 0.75
vt 0.59375 0.7734375
vt 0.59375 0.75
vt 0.59375 0.7734375
vt 0.546875 0.7734375
vt 0.546875 0.75
vt 0.546875 0.6953125
vt 0.546875 0.6328125
vt 0.53125 0.6328125
vt 0.53125 0.6953125
vt 0.53125 0.6953125
vt 0.53125 0.6328125
vt 0.546875 0.6328125
vt 0.546875 0.6953125
vt 0.5078125 0.65625
vt 0.4921875 0.65625
vt 0.4921875 0.703125
vt 0.5078125 0.703125
vt 0.4765625 0.65625
vt 0.4765625 0.703125
vt 0.4921875 0.703125
vt 0.4921875 0.65625
vt 0.4921875 0.703125
vt 0.4921875 0.671875
vt 0.5078125 0.671875
vt 0.5078125 0.703125
vt 0.5234375 0.6875
vt 0.5078125 0.6875
vt 0.5078125 0.703125
vt 0.5234375 0.703125
vt 0.5078125 0.671875
vt 0.5078125 0.703125
vt 0.5234375 0.703125
vt 0.5234375 0.671875
vt 0.5078125 0.703125
vt 0.5078125 0.6875
vt 0.5234375 0.6875
vt 0.5234375 0.703125
vt 0.5234375 0.6875
vt 0.5078125 0.6875
vt 0.5078125 0.703125
vt 0.5234375 0.703125
vt 0.5078125 0.671875
vt 0.5078125 0.703125
vt 0.5234375 0.703125
vt 0.5234375 0.671875
vt 0.5078125 0.703125
vt 0.5078125 0.6875
vt 0.5234375 0.6875
vt 0.5234375 0.703125
vt 0.5390625 0.703125
vt 0.5390625 0.734375
vt 0.5078125 0.734375
vt 0.5078125 0.703125
vt 0.4609375 0.6328125
vt 0.4609375 0.6640625
vt 0.4765625 0.6640625
vt 0.4765625 0.6328125
vt 0.4765625 0.6328125
vt 0.4765625 0.6640625
vt 0.4609375 0.6640625
vt 0.4609375 0.6328125
vt 0.453125 0.703125
vt 0.5 0.703125
vt 0.5 0.75
vt 0.453125 0.75
vn 1 0 0
vn 0 1 0
vn 0 -1 0
vn 0 0 -1
vn 1 0 0
vn 0 1 0
vn 0 -1 0
vn 1 0 0
vn 0 1 0
vn 0 -1 0
vn 0 1 0
vn 0 -1 0
vn 0 0 -1
vn 0 0 1
vn 1 0 0
vn 0 1 0
vn 0 1 0
vn 0 0 -1
vn 0 0 1
vn 0 0 -1
vn 1 0 0
vn 0 0 1
vn 0 0 -1
vn 1 0 0
vn 0 0 1
vn 0 0 -1
vn 0 0 1
vn 0 -1 0
vn 0 0 -1
vn 1 0 0
vn 0 0 1
vn 0 0 -1
vn 0 0 1
vn 0 -1 0
vn 1 0 0
vn 0 1 0
vn 0 -1 0
vn -1 0 0
vn 0 1 0
vn 0 -1 0
vn 0 0 -1
vn -1 0 0
vn 0 1 0
vn 0 -1 0
vn -1 0 0
vn 0 1 0
vn 0 -1 0
vn -1 0 0
vn 0 1 0
vn 0 -1 0
vn 0 0 -1
vn 0 0 1
vn -1 0 0
vn 0 1 0
vn 0 0 -1
vn -1 0 0
vn 0 0 1
vn 0 0 -1
vn -1 0 0
vn 0 0 1
vn 0 0 -1
vn -1 0 0
vn 0 0 1
vn -1 0 0
vn 0 1 0
vn 0 -1 0
vn 1 0 0
usemtl m_fb4282bc-10f8-24fc-5e12-044afee62972
f 375/993/254 371/994/254 374/995/254 376/996/254
f 377/997/255 375/998/255 376/999/255 378/1000/255
f 371/1001/256 372/1002/256 373/1003/256 374/1004/256
f 376/1005/257 374/1006/257 373/1007/257 378/1008/257
f 380/1009/258 383/1010/258 384/1011/258 381/1012/258
f 379/1013/259 380/1014/259 381/1015/259 382/1016/259
f 383/1017/260 385/1018/260 386/1019/260 384/1020/260
f 387/1021/261 388/1022/261 389/1023/261 390/1024/261
f 391/1025/262 387/1026/262 390/1027/262 392/1028/262
f 388/1029/263 393/1030/263 394/1031/263 389/1032/263
f 402/1033/264 395/1034/264 398/1035/264 401/1036/264
f 396/1037/265 399/1038/265 400/1039/265 397/1040/265
f 398/1041/266 397/1042/266 400/1043/266 401/1044/266
f 402/1045/267 399/1046/267 396/1047/267 395/1048/267
f 403/1049/268 404/1050/268 405/1051/268 406/1052/268
f 407/1053/269 403/1054/269 406/1055/269 408/1056/269
f 409/1057/270 410/1058/270 411/1059/270 412/1060/270
f 411/1061/271 413/1062/271 414/1063/271 412/1064/271
f 409/1065/272 415/1066/272 416/1067/272 410/1068/272
f 419/1069/273 417/1070/273 418/1071/273 420/1072/273
f 423/1073/274 421/1074/274 422/1075/274 424/1076/274
f 426/1077/275 425/1078/275 427/1079/275 428/1080/275
f 439/1081/276 437/1082/276 438/1083/276 440/1084/276
f 431/1085/277 429/1086/277 430/1087/277 432/1088/277
f 434/1089/278 433/1090/278 435/1091/278 436/1092/278
f 443/1093/279 441/1094/279 442/1095/279 444/1096/279
f 445/1097/280 447/1098/280 448/1099/280 446/1100/280
f 451/1101/281 450/1102/281 449/1103/281 452/1104/281
f 459/1105/282 457/1106/282 458/1107/282 460/1108/282
f 455/1109/283 453/1110/283 454/1111/283 456/1112/283
f 462/1113/284 461/1114/284 463/1115/284 464/1116/284
f 467/1117/285 465/1118/285 466/1119/285 468/1120/285
f 471/1121/286 469/1122/286 470/1123/286 472/1124/286
f 475/1125/287 473/1126/287 474/1127/287 476/1128/287
f 477/1129/288 478/1130/288 479/1131/288 480/1132/288
f 481/1133/289 477/1134/289 480/1135/289 482/1136/289
f 478/1137/290 483/1138/290 484/1139/290 479/1140/290
f 487/1141/291 486/1142/291 485/1143/291 488/1144/291
f 488/1145/292 485/1146/292 489/1147/292 490/1148/292
f 492/1149/293 491/1150/293 486/1151/293 487/1152/293
f 492/1153/294 487/1154/294 488/1155/294 490/1156/294
f 495/1157/295 494/1158/295 493/1159/295 496/1160/295
f 496/1161/296 493/1162/296 497/1163/296 498/1164/296
f 500/1165/297 499/1166/297 494/1167/297 495/1168/297
f 503/1169/298 502/1170/298 501/1171/298 504/1172/298
f 504/1173/299 501/1174/299 505/1175/299 506/1176/299
f 508/1177/300 507/1178/300 502/1179/300 503/1180/300
f 511/1181/301 510/1182/301 509/1183/301 512/1184/301
f 512/1185/302 509/1186/302 513/1187/302 514/1188/302
f 516/1189/303 515/1190/303 510/1191/303 511/1192/303
f 516/1193/304 511/1194/304 512/1195/304 514/1196/304
f 510/1197/305 515/1198/305 513/1199/305 509/1200/305
f 519/1201/306 518/1202/306 517/1203/306 520/1204/306
f 520/1205/307 517/1206/307 521/1207/307 522/1208/307
f 524/1209/308 523/1210/308 525/1211/308 526/1212/308
f 528/1213/309 527/1214/309 529/1215/309 530/1216/309
f 533/1217/310 531/1218/310 532/1219/310 534/1220/310
f 536/1221/311 535/1222/311 537/1223/311 538/1224/311
f 540/1225/312 539/1226/312 541/1227/312 542/1228/312
f 545/1229/313 543/1230/313 544/1231/313 546/1232/313
f 548/1233/314 547/1234/314 549/1235/314 550/1236/314
f 552/1237/315 551/1238/315 553/1239/315 554/1240/315
f 557/1241/316 555/1242/316 556/1243/316 558/1244/316
f 561/1245/317 560/1246/317 559/1247/317 562/1248/317
f 562/1249/318 559/1250/318 563/1251/318 564/1252/318
f 566/1253/319 565/1254/319 560/1255/319 561/1256/319
f 395/1257/320 396/1258/320 397/1259/320 398/1260/320
o chasis
v -1.25000125 0.9822325 0.0625
v 0 1.5 0.0625
v -0.5177675 0.24999875000000005 0.0625
v -1.25000125 2.0177675 0.0625
v 0.5177675 2.75000125 0.0625
v -0.5177675 2.75000125 0.0625
v 1.25000125 2.0177675 0.0625
v 1.25000125 0.9822325 0.0625
v 0.5177675 0.24999875000000005 0.0625
vt 0.843749765625 0.6527271875
vt 0.99999984375 0.7174483593750001
vt 0.99999984375 0.58800609375
vt 0.843749765625 0.6527275781249999
vt 1 0.7174483593750001
vt 1 0.588006875
vt 0.843749765625 0.6527271875
vt 0.99999984375 0.7174483593750001
vt 0.99999984375 0.58800609375
vt 0.843749765625 0.6527275781249999
vt 1 0.7174483593750001
vt 1 0.588006875
vt 0.843749765625 0.6527271875
vt 0.99999984375 0.7174483593750001
vt 0.99999984375 0.58800609375
vt 0.843749765625 0.6527275781249999
vt 1 0.7174483593750001
vt 1 0.588006875
vt 0.843749765625 0.6527271875
vt 0.99999984375 0.7174483593750001
vt 0.99999984375 0.58800609375
vt 0.843749765625 0.6527275781249999
vt 1 0.7174483593750001
vt 1 0.588006875
vn 0 0 1
vn 0 0 1
vn 0 0 1
vn 0 0 1
vn 0 0 1
vn 0 0 1
vn 0 0 1
vn 0 0 1
usemtl m_fb4282bc-10f8-24fc-5e12-044afee62972
f 568/1261/321 569/1262/321 575/1263/321
f 568/1264/322 575/1265/322 574/1266/322
f 568/1267/323 574/1268/323 573/1269/323
f 568/1270/324 573/1271/324 571/1272/324
f 568/1273/325 571/1274/325 572/1275/325
f 568/1276/326 572/1277/326 570/1278/326
f 568/1279/327 570/1280/327 567/1281/327
f 568/1282/328 567/1283/328 569/1284/328
o pipetop
v 0.1875 2.102835010654565 0.12734664507267135
v 0.1875 2.4362349892310213 -2.7282565231363183
v 0.1875 1.9166000214235441 0.1056031682089894
v 0.1875 2.25 -2.75
v -0.1875 2.102835010654565 0.12734664507267135
v -0.1875 2.4362349892310213 -2.7282565231363183
v -0.1875 1.9166000214235441 0.1056031682089894
v -0.1875 2.25 -2.75
vt 0.7265625 0.53125
vt 0.7265625 0.890625
vt 0.703125 0.890625
vt 0.703125 0.53125
vt 0.78125 0.890625
vt 0.7578125 0.890625
vt 0.7578125 0.53125
vt 0.78125 0.53125
vt 0.765625 0.890625
vt 0.71875 0.890625
vt 0.71875 0.53125
vt 0.765625 0.53125
vt 0.71875 0.53125
vt 0.71875 0.890625
vt 0.765625 0.890625
vt 0.765625 0.53125
vt 0.765625 0.5546875
vt 0.71875 0.5546875
vt 0.71875 0.53125
vt 0.765625 0.53125
vn 1 0 0
vn -1 0 0
vn 0 0.993253275898779 0.11596520993963684
vn 0 -0.993253275898779 -0.11596520993963684
vn 0 0.11596520993963684 -0.993253275898779
usemtl m_fb4282bc-10f8-24fc-5e12-044afee62972
f 577/1285/329 576/1286/329 578/1287/329 579/1288/329
f 582/1289/330 580/1290/330 581/1291/330 583/1292/330
f 580/1293/331 576/1294/331 577/1295/331 581/1296/331
f 579/1297/332 578/1298/332 582/1299/332 583/1300/332
f 581/1301/333 577/1302/333 579/1303/333 583/1304/333
o sproing
v 0.125 3.6274882419831984 -3.4644168448956627
v 0.125 3.1293908929373258 -3.5079947162694918
v 0.125 3.289759738836022 0.395837610209851
v 0.125 2.791662389790149 0.35225973883602174
v -0.125 3.6274882419831984 -3.4644168448956627
v -0.125 3.1293908929373258 -3.5079947162694918
v -0.125 3.289759738836022 0.395837610209851
v -0.125 2.791662389790149 0.35225973883602174
vt 0 0.03125
vt 0 0.0859375
vt 0.484375 0.0859375
vt 0.484375 0.03125
vt 0.484375 0.0859375
vt 0 0.0859375
vt 0 0.03125
vt 0.484375 0.03125
vt 0 -0.0625
vt 1 -0.0625
vt 1 0.9375
vt 0 0.9375
vt 0.515625 0.03125
vt 0.515625 0.0859375
vt 0.484375 0.0859375
vt 0.484375 0.03125
vt 0.484375 0.03125
vt 0 0.03125
vt 0 0
vt 0.484375 0
vt 1 1
vt 0 1
vt 0 0.5
vt 1 0.5
vn 1 0 0
vn -1 0 0
vn 0 0.08715574274765849 -0.9961946980917457
vn 0 -0.08715574274765849 0.9961946980917457
vn 0 0.9961946980917457 0.08715574274765849
vn 0 -0.9961946980917457 -0.08715574274765849
usemtl m_fb4282bc-10f8-24fc-5e12-044afee62972
f 585/1305/334 584/1306/334 586/1307/334 587/1308/334
f 590/1309/335 588/1310/335 589/1311/335 591/1312/335
usemtl none
f 588/1313/336 584/1314/336 585/1315/336 589/1316/336
usemtl m_fb4282bc-10f8-24fc-5e12-044afee62972
f 587/1317/337 586/1318/337 590/1319/337 591/1320/337
f 586/1321/338 584/1322/338 588/1323/338 590/1324/338
usemtl none
f 589/1325/339 585/1326/339 587/1327/339 591/1328/339
o sproing
v 0.25 3.7696067811865475 -3.603553390593274
v 0.25 3.416053390593274 -3.9571067811865475
v 0.25 3.0625 -2.896446609406726
v 0.25 2.708946609406726 -3.25
v -0.25 3.7696067811865475 -3.603553390593274
v -0.25 3.416053390593274 -3.9571067811865475
v -0.25 3.0625 -2.896446609406726
v -0.25 2.708946609406726 -3.25
vt 0.5 0.2109375
vt 0.5 0.2734375
vt 0.375 0.2734375
vt 0.375 0.2109375
vt 0.375 0.2109375
vt 0.5 0.2109375
vt 0.5 0.2734375
vt 0.375 0.2734375
vt 0.375 0.2109375
vt 0.5 0.2109375
vt 0.5 0.2734375
vt 0.375 0.2734375
vt 0.5 0.2109375
vt 0.5 0.2734375
vt 0.375 0.2734375
vt 0.375 0.2109375
vn 1 0 0
vn -1 0 0
vn 0 0.7071067811865476 0.7071067811865475
vn 0 -0.7071067811865476 -0.7071067811865475
usemtl m_fb4282bc-10f8-24fc-5e12-044afee62972
f 593/1329/340 592/1330/340 594/1331/340 595/1332/340
f 598/1333/341 596/1334/341 597/1335/341 599/1336/341
f 594/1337/342 592/1338/342 596/1339/342 598/1340/342
f 597/1341/343 593/1342/343 595/1343/343 599/1344/343
o mount
v 0.5 4 -3.5
v 0.5 4 -4.5
v 0.5 3 -3.5
v 0.5 3 -4.5
v -0.5 4 -3.5
v -0.5 4 -4.5
v -0.5 3 -3.5
v -0.5 3 -4.5
vt 1 1
vt 0 1
vt 0 0.5
vt 1 0.5
vt 1 0.5
vt 1 1
vt 0 1
vt 0 0.5
vt 0 0
vt 1 0
vt 1 1
vt 0 1
vt 1 0
vt 1 1
vt 0 1
vt 0 0
vt 1 0.5
vt 1 1
vt 0 1
vt 0 0.5
vt 1 1
vt 0 1
vt 0 0.5
vt 1 0.5
vn 1 0 0
vn -1 0 0
vn 0 1 0
vn 0 -1 0
vn 0 0 1
vn 0 0 -1
usemtl none
f 601/1345/344 600/1346/344 602/1347/344 603/1348/344
f 606/1349/345 604/1350/345 605/1351/345 607/1352/345
f 604/1353/346 600/1354/346 601/1355/346 605/1356/346
f 603/1357/347 602/1358/347 606/1359/347 607/1360/347
f 602/1361/348 600/1362/348 604/1363/348 606/1364/348
f 605/1365/349 601/1366/349 603/1367/349 607/1368/349
o mesh
v 0.1875 3.1875 0.625
v 0.1875 3.1875 -2.375
v 0.1875 2.625 0.625
v 0.1875 2.625 -2.375
v -0.1875 3.1875 0.625
v -0.1875 3.1875 -2.375
v -0.1875 2.625 0.625
v -0.1875 2.625 -2.375
vt 0 0.15625
vt 0.375 0.15625
vt 0.375 0.0859375
vt 0 0.0859375
vt 0.375 0.0859375
vt 0.375 0.15625
vt 0 0.15625
vt 0 0.0859375
vt 0.375 0.15625
vt 0.375 0.203125
vt 0 0.203125
vt 0 0.15625
vt 0.5625 0.015625
vt 0.5625 0.0859375
vt 0.515625 0.0859375
vt 0.515625 0.015625
vt 0.375 0.25
vt 0.375 0.203125
vt 0 0.203125
vt 0 0.25
vn 1 0 0
vn -1 0 0
vn 0 1 0
vn 0 0 1
vn 0 -1 0
usemtl m_fb4282bc-10f8-24fc-5e12-044afee62972
f 609/1369/350 608/1370/350 610/1371/350 611/1372/350
f 614/1373/351 612/1374/351 613/1375/351 615/1376/351
f 612/1377/352 608/1378/352 609/1379/352 613/1380/352
f 610/1381/353 608/1382/353 612/1383/353 614/1384/353
f 610/1385/354 614/1386/354 615/1387/354 611/1388/354
o mesh
v 0.284771875 3.1875 -2.375
v 0.284771875 3.1875 -3.375
v 0.284771875 2.1875 -2.375
v 0.284771875 2.1875 -3.375
v -0.284771875 3.1875 -2.375
v -0.284771875 3.1875 -3.375
v -0.284771875 2.1875 -2.375
v -0.284771875 2.1875 -3.375
vt 0.375 0.2109375
vt 0.5 0.2109375
vt 0.5 0.0859375
vt 0.375 0.0859375
vt 0.5 0.0859375
vt 0.5 0.2109375
vt 0.375 0.2109375
vt 0.375 0.0859375
vt 0.50389140625 0.0859375
vt 0.575084375 0.0859375
vt 0.575084375 0.2109375
vt 0.50389140625 0.2109375
vt 0.575084765625 0.2109375
vt 0.503891796875 0.2109375
vt 0.503891796875 0.0859375
vt 0.575084765625 0.0859375
vt 0.50389140625 0.0859375
vt 0.575084375 0.0859375
vt 0.575084375 0.2109375
vt 0.50389140625 0.2109375
vn 1 0 0
vn -1 0 0
vn 0 1 0
vn 0 0 -1
vn 0 0 1
usemtl m_fb4282bc-10f8-24fc-5e12-044afee62972
f 617/1389/355 616/1390/355 618/1391/355 619/1392/355
f 622/1393/356 620/1394/356 621/1395/356 623/1396/356
f 620/1397/357 616/1398/357 617/1399/357 621/1400/357
f 621/1401/358 617/1402/358 619/1403/358 623/1404/358
f 622/1405/359 618/1406/359 616/1407/359 620/1408/359